<?xml version="1.0" encoding="utf-8"?>
<svg version="1.1" xmlns:xlink="http://www.w3.org/1999/xlink" width="14px" height="14px" xmlns="http://www.w3.org/2000/svg">
  <g transform="matrix(1 0 0 1 -1177 -157 )">
    <path d="M 14 1.9975186104218356  C 14 2.1480562448304377  13.914414414414415 2.2783291976840347  13.743243243243242 2.3883374689826304  L 6.5675675675675675 7  L 13.743243243243242 11.61166253101737  C 13.914414414414415 11.721670802315963  14 11.851943755169563  14 12.002481389578165  C 14 12.153019023986765  13.914414414414415 12.283291976840363  13.743243243243242 12.393300248138958  L 11.5 13.834987593052109  C 11.32882882882883 13.944995864350703  11.126126126126126 14  10.891891891891891 14  C 10.657657657657658 14  10.454954954954957 13.944995864350703  10.283783783783784 13.834987593052109  L 0.2567567567567568 7.3908188585607935  C 0.08558558558558571 7.2808105872621995  0 7.150537634408602  0 7  C 0 6.849462365591398  0.08558558558558571 6.7191894127378  0.2567567567567568 6.6091811414392065  L 10.283783783783784 0.16501240694789043  C 10.454954954954957 0.05500413564929629  10.657657657657658 0  10.891891891891891 0  C 11.126126126126126 0  11.32882882882883 0.05500413564929629  11.5 0.16501240694789043  L 13.743243243243242 1.6066997518610422  C 13.914414414414415 1.7167080231596348  14 1.846980976013232  14 1.9975186104218356  Z " fill-rule="nonzero" fill="#000000" stroke="none" transform="matrix(1 0 0 1 1177 157 )" />
  </g>
</svg>