<?xml version="1.0" encoding="utf-8"?>
<svg version="1.1" xmlns:xlink="http://www.w3.org/1999/xlink" width="18px" height="17px" xmlns="http://www.w3.org/2000/svg">
  <g transform="matrix(1 0 0 1 -260 -245 )">
    <path d="M 13.640625 15.373046875  C 13.777644230769232 15.232855902777777  13.846153846153847 15.066840277777777  13.846153846153847 14.875  C 13.846153846153847 14.683159722222223  13.777644230769232 14.517144097222223  13.640625 14.376953125  C 13.50360576923077 14.236762152777777  13.341346153846157 14.166666666666668  13.153846153846153 14.166666666666668  C 12.966346153846153 14.166666666666668  12.80408653846154 14.236762152777777  12.667067307692308 14.376953125  C 12.530048076923078 14.517144097222223  12.461538461538462 14.683159722222223  12.461538461538462 14.875  C 12.461538461538462 15.066840277777777  12.530048076923078 15.232855902777777  12.667067307692308 15.373046875  C 12.80408653846154 15.513237847222223  12.966346153846153 15.583333333333332  13.153846153846153 15.583333333333332  C 13.341346153846157 15.583333333333332  13.50360576923077 15.513237847222223  13.640625 15.373046875  Z M 16.40985576923077 15.373046875  C 16.546875 15.232855902777777  16.615384615384617 15.066840277777777  16.615384615384617 14.875  C 16.615384615384617 14.683159722222223  16.546875 14.517144097222223  16.40985576923077 14.376953125  C 16.27283653846154 14.236762152777777  16.110576923076923 14.166666666666668  15.923076923076923 14.166666666666668  C 15.735576923076923 14.166666666666668  15.573317307692308 14.236762152777777  15.436298076923077 14.376953125  C 15.299278846153848 14.517144097222223  15.23076923076923 14.683159722222223  15.23076923076923 14.875  C 15.23076923076923 15.066840277777777  15.299278846153848 15.232855902777777  15.436298076923077 15.373046875  C 15.573317307692308 15.513237847222223  15.735576923076923 15.583333333333332  15.923076923076923 15.583333333333332  C 16.110576923076923 15.583333333333332  16.27283653846154 15.513237847222223  16.40985576923077 15.373046875  Z M 17.697115384615383 11.643229166666666  C 17.899038461538463 11.849826388888886  18 12.100694444444445  18 12.395833333333334  L 18 15.9375  C 18 16.23263888888889  17.899038461538463 16.483506944444443  17.697115384615383 16.690104166666668  C 17.49519230769231 16.89670138888889  17.250000000000004 17  16.96153846153846 17  L 1.0384615384615385 17  C 0.7500000000000001 17  0.5048076923076924 16.89670138888889  0.30288461538461536 16.690104166666668  C 0.10096153846153845 16.483506944444443  0 16.23263888888889  0 15.9375  L 0 12.395833333333334  C 0 12.100694444444445  0.10096153846153845 11.849826388888886  0.30288461538461536 11.643229166666666  C 0.5048076923076924 11.436631944444445  0.7500000000000001 11.333333333333334  1.0384615384615385 11.333333333333334  L 6.068509615384615 11.333333333333334  L 7.528846153846154 12.838541666666668  C 7.947115384615385 13.25173611111111  8.4375 13.458333333333332  9 13.458333333333332  C 9.5625 13.458333333333332  10.052884615384615 13.25173611111111  10.471153846153847 12.838541666666668  L 11.942307692307692 11.333333333333334  L 16.96153846153846 11.333333333333334  C 17.250000000000004 11.333333333333334  17.49519230769231 11.436631944444445  17.697115384615383 11.643229166666666  Z M 13.846153846153847 5.666666666666667  C 14.149038461538462 5.666666666666667  14.361778846153847 5.810546875  14.484375 6.098307291666667  C 14.606971153846157 6.400824652777778  14.556490384615387 6.659071180555555  14.332932692307692 6.873046875  L 9.486778846153847 11.831380208333334  C 9.356971153846153 11.971571180555555  9.194711538461538 12.041666666666666  9 12.041666666666666  C 8.805288461538462 12.041666666666666  8.643028846153847 11.971571180555555  8.513221153846153 11.831380208333334  L 3.6670673076923075 6.873046875  C 3.443509615384616 6.659071180555555  3.3930288461538467 6.400824652777778  3.515625 6.098307291666667  C 3.638221153846154 5.810546875  3.8509615384615383 5.666666666666667  4.153846153846154 5.666666666666667  L 6.923076923076923 5.666666666666667  L 6.923076923076923 0.7083333333333327  C 6.923076923076923 0.5164930555555532  6.991586538461539 0.35047743055555325  7.128605769230769 0.2102864583333327  C 7.265625000000001 0.07009548611111216  7.427884615384616 0  7.615384615384615 0  L 10.384615384615383 0  C 10.572115384615385 0  10.734375000000002 0.07009548611111216  10.87139423076923 0.2102864583333327  C 11.008413461538462 0.35047743055555325  11.076923076923077 0.5164930555555532  11.076923076923077 0.7083333333333327  L 11.076923076923077 5.666666666666667  L 13.846153846153847 5.666666666666667  Z " fill-rule="nonzero" fill="#ffffff" stroke="none" transform="matrix(1 0 0 1 260 245 )" />
  </g>
</svg>