<?xml version="1.0" encoding="utf-8"?>
<svg version="1.1" xmlns:xlink="http://www.w3.org/1999/xlink" width="14px" height="14px" xmlns="http://www.w3.org/2000/svg">
  <g transform="matrix(1 0 0 1 -1301 -157 )">
    <path d="M 14 7  C 14 7.150537634408602  13.914414414414415 7.2808105872621995  13.743243243243242 7.3908188585607935  L 3.7162162162162167 13.834987593052109  C 3.5450450450450455 13.944995864350703  3.342342342342343 14  3.108108108108108 14  C 2.8738738738738743 14  2.6711711711711716 13.944995864350703  2.5 13.834987593052109  L 0.2567567567567568 12.393300248138958  C 0.08558558558558571 12.283291976840363  0 12.153019023986765  0 12.002481389578165  C 0 11.851943755169563  0.08558558558558571 11.721670802315963  0.2567567567567568 11.61166253101737  L 7.432432432432433 7  L 0.2567567567567568 2.3883374689826304  C 0.08558558558558571 2.2783291976840347  0 2.1480562448304377  0 1.9975186104218356  C 0 1.846980976013232  0.08558558558558571 1.7167080231596348  0.2567567567567568 1.6066997518610422  L 2.5 0.16501240694789043  C 2.6711711711711716 0.05500413564929629  2.8738738738738743 0  3.108108108108108 0  C 3.342342342342343 0  3.5450450450450455 0.05500413564929629  3.7162162162162167 0.16501240694789043  L 13.743243243243242 6.6091811414392065  C 13.914414414414415 6.7191894127378  14 6.849462365591398  14 7  Z " fill-rule="nonzero" fill="#000000" stroke="none" transform="matrix(1 0 0 1 1301 157 )" />
  </g>
</svg>