<?xml version="1.0" encoding="utf-8"?>
<svg version="1.1" xmlns:xlink="http://www.w3.org/1999/xlink" width="12px" height="15px" xmlns="http://www.w3.org/2000/svg">
  <g transform="matrix(1 0 0 1 -436 -317 )">
    <path d="M 3.3333333333333335 4.772727272727273  L 3.3333333333333335 6.818181818181818  L 8.666666666666666 6.818181818181818  L 8.666666666666666 4.772727272727273  C 8.666666666666666 4.019886363636363  8.40625 3.377130681818181  7.885416666666667 2.8444602272727266  C 7.364583333333334 2.3117897727272734  6.7361111111111125 2.0454545454545454  6 2.0454545454545454  C 5.263888888888889 2.0454545454545454  4.635416666666666 2.3117897727272734  4.114583333333333 2.8444602272727266  C 3.59375 3.377130681818181  3.3333333333333335 4.019886363636363  3.3333333333333335 4.772727272727273  Z M 11.708333333333332 7.116477272727273  C 11.902777777777779 7.315340909090909  12 7.55681818181818  12 7.840909090909091  L 12 13.977272727272728  C 12 14.261363636363637  11.902777777777779 14.502840909090908  11.708333333333332 14.701704545454545  C 11.513888888888891 14.900568181818182  11.277777777777779 15  11 15  L 1 15  C 0.7222222222222223 15  0.48611111111111116 14.900568181818182  0.2916666666666667 14.701704545454545  C 0.09722222222222221 14.502840909090908  0 14.261363636363637  0 13.977272727272728  L 0 7.840909090909091  C 0 7.55681818181818  0.09722222222222221 7.315340909090909  0.2916666666666667 7.116477272727273  C 0.48611111111111116 6.917613636363637  0.7222222222222223 6.818181818181818  1 6.818181818181818  L 1.3333333333333333 6.818181818181818  L 1.3333333333333333 4.772727272727273  C 1.3333333333333333 3.4659090909090895  1.7916666666666665 2.34375  2.7083333333333335 1.40625  C 3.625 0.46875  4.722222222222222 0  6 0  C 7.277777777777779 0  8.375 0.46875  9.291666666666668 1.40625  C 10.208333333333332 2.34375  10.666666666666666 3.4659090909090895  10.666666666666666 4.772727272727273  L 10.666666666666666 6.818181818181818  L 11 6.818181818181818  C 11.277777777777779 6.818181818181818  11.513888888888891 6.917613636363637  11.708333333333332 7.116477272727273  Z " fill-rule="nonzero" fill="#ffffff" stroke="none" transform="matrix(1 0 0 1 436 317 )" />
  </g>
</svg>