<?xml version="1.0" encoding="utf-8"?>
<svg version="1.1" xmlns:xlink="http://www.w3.org/1999/xlink" width="20px" height="20px" xmlns="http://www.w3.org/2000/svg">
  <g transform="matrix(1 0 0 1 -618 -684 )">
    <path d="M 7.5 0.9375  C 7.5 0.41796875  7.91796875 0  8.4375 0  L 11.5625 0  C 12.08203125 0  12.5 0.41796875  12.5 0.9375  L 12.5 7.5  L 15.92578125 7.5  C 16.62109375 7.5  16.96875 8.33984375  16.4765625 8.83203125  L 10.53515625 14.77734375  C 10.2421875 15.0703125  9.76171875 15.0703125  9.46875 14.77734375  L 3.51953125 8.83203125  C 3.02734375 8.33984375  3.375 7.5  4.0703125 7.5  L 7.5 7.5  L 7.5 0.9375  Z M 19.0625 13.75  C 19.58203125 13.75  20 14.16796875  20 14.6875  L 20 19.0625  C 20 19.58203125  19.58203125 20  19.0625 20  L 0.9375 20  C 0.41796875 20  0 19.58203125  0 19.0625  L 0 14.6875  C 0 14.16796875  0.41796875 13.75  0.9375 13.75  L 6.66796875 13.75  L 8.58203125 15.6640625  C 9.3671875 16.44921875  10.6328125 16.44921875  11.41796875 15.6640625  L 13.33203125 13.75  L 19.0625 13.75  Z M 14.375 18.90625  C 14.8046875 18.90625  15.15625 18.5546875  15.15625 18.125  C 15.15625 17.6953125  14.8046875 17.34375  14.375 17.34375  C 13.9453125 17.34375  13.59375 17.6953125  13.59375 18.125  C 13.59375 18.5546875  13.9453125 18.90625  14.375 18.90625  Z M 16.875 18.90625  C 17.3046875 18.90625  17.65625 18.5546875  17.65625 18.125  C 17.65625 17.6953125  17.3046875 17.34375  16.875 17.34375  C 16.4453125 17.34375  16.09375 17.6953125  16.09375 18.125  C 16.09375 18.5546875  16.4453125 18.90625  16.875 18.90625  Z " fill-rule="nonzero" fill="#000000" stroke="none" transform="matrix(1 0 0 1 618 684 )" />
  </g>
</svg>