<?xml version="1.0" encoding="utf-8"?>
<svg version="1.1" xmlns:xlink="http://www.w3.org/1999/xlink" width="21px" height="20px" xmlns="http://www.w3.org/2000/svg">
  <g transform="matrix(1 0 0 1 -617 -730 )">
    <path d="M 15.9140625 18.162499999999998  C 16.07391826923077 18.004166666666666  16.153846153846153 17.816666666666666  16.153846153846153 17.6  C 16.153846153846153 17.383333333333336  16.07391826923077 17.195833333333333  15.9140625 17.037499999999998  C 15.754206730769232 16.879166666666666  15.564903846153848 16.8  15.346153846153845 16.8  C 15.127403846153847 16.8  14.938100961538463 16.879166666666666  14.778245192307693 17.037499999999998  C 14.618389423076925 17.195833333333333  14.538461538461538 17.383333333333336  14.538461538461538 17.6  C 14.538461538461538 17.816666666666666  14.618389423076925 18.004166666666666  14.778245192307693 18.162499999999998  C 14.938100961538463 18.320833333333336  15.127403846153847 18.400000000000002  15.346153846153845 18.400000000000002  C 15.564903846153848 18.400000000000002  15.754206730769232 18.320833333333336  15.9140625 18.162499999999998  Z M 19.14483173076923 18.162499999999998  C 19.3046875 18.004166666666666  19.384615384615387 17.816666666666666  19.384615384615387 17.6  C 19.384615384615387 17.383333333333336  19.3046875 17.195833333333333  19.14483173076923 17.037499999999998  C 18.984975961538463 16.879166666666666  18.795673076923077 16.8  18.576923076923077 16.8  C 18.358173076923077 16.8  18.168870192307693 16.879166666666666  18.009014423076923 17.037499999999998  C 17.849158653846157 17.195833333333333  17.76923076923077 17.383333333333336  17.76923076923077 17.6  C 17.76923076923077 17.816666666666666  17.849158653846157 18.004166666666666  18.009014423076923 18.162499999999998  C 18.168870192307693 18.320833333333336  18.358173076923077 18.400000000000002  18.576923076923077 18.400000000000002  C 18.795673076923077 18.400000000000002  18.984975961538463 18.320833333333336  19.14483173076923 18.162499999999998  Z M 20.646634615384613 13.95  C 20.88221153846154 14.18333333333333  21 14.466666666666665  21 14.8  L 21 18.799999999999997  C 21 19.133333333333333  20.88221153846154 19.416666666666668  20.646634615384613 19.650000000000002  C 20.411057692307693 19.883333333333336  20.125000000000004 20  19.788461538461537 20  L 1.2115384615384617 20  C 0.8750000000000001 20  0.5889423076923078 19.883333333333336  0.3533653846153846 19.650000000000002  C 0.11778846153846152 19.416666666666668  0 19.133333333333333  0 18.799999999999997  L 0 14.8  C 0 14.466666666666665  0.11778846153846152 14.18333333333333  0.3533653846153846 13.95  C 0.5889423076923078 13.716666666666669  0.8750000000000001 13.599999999999998  1.2115384615384617 13.599999999999998  L 6.6003605769230775 13.599999999999998  C 6.777043269230769 14.066666666666666  7.073617788461538 14.45  7.490084134615384 14.75  C 7.906550480769231 15.049999999999999  8.371394230769232 15.2  8.884615384615385 15.2  L 12.115384615384615 15.2  C 12.62860576923077 15.2  13.093449519230768 15.049999999999999  13.509915865384615 14.75  C 13.926382211538462 14.45  14.222956730769232 14.066666666666666  14.399639423076923 13.599999999999998  L 19.788461538461537 13.599999999999998  C 20.125000000000004 13.599999999999998  20.411057692307693 13.716666666666669  20.646634615384613 13.95  Z M 16.721754807692307 5.8375  C 16.982572115384617 6.087499999999999  17.04146634615385 6.375  16.8984375 6.699999999999999  C 16.755408653846157 7.033333333333331  16.507211538461537 7.199999999999999  16.153846153846153 7.199999999999999  L 12.923076923076923 7.199999999999999  L 12.923076923076923 12.8  C 12.923076923076923 13.016666666666666  12.843149038461538 13.204166666666666  12.683293269230768 13.3625  C 12.523437500000002 13.520833333333332  12.334134615384617 13.599999999999998  12.115384615384615 13.599999999999998  L 8.884615384615385 13.599999999999998  C 8.665865384615385 13.599999999999998  8.4765625 13.520833333333332  8.316706730769232 13.3625  C 8.156850961538462 13.204166666666666  8.076923076923077 13.016666666666666  8.076923076923077 12.8  L 8.076923076923077 7.199999999999999  L 4.846153846153847 7.199999999999999  C 4.492788461538462 7.199999999999999  4.244591346153847 7.033333333333331  4.1015625 6.699999999999999  C 3.958533653846154 6.375  4.017427884615385 6.087499999999999  4.2782451923076925 5.8375  L 9.932091346153847 0.23749999999999938  C 10.083533653846153 0.07916666666666572  10.272836538461538 0  10.5 0  C 10.727163461538462 0  10.916466346153845 0.07916666666666572  11.067908653846155 0.23749999999999938  L 16.721754807692307 5.8375  Z " fill-rule="nonzero" fill="#000000" stroke="none" transform="matrix(1 0 0 1 617 730 )" />
  </g>
</svg>