<?xml version="1.0" encoding="utf-8"?>
<svg version="1.1" xmlns:xlink="http://www.w3.org/1999/xlink" width="9px" height="15px" xmlns="http://www.w3.org/2000/svg">
  <g transform="matrix(1 0 0 1 -1323 -96 )">
    <path d="M 3.375 8.981584821428571  C 3.7382812500000004 9.065290178571429  4.11328125 9.107142857142858  4.5 9.107142857142858  C 4.88671875 9.107142857142858  5.261718750000001 9.065290178571429  5.625 8.981584821428571  L 5.625 14.464285714285715  C 5.625 14.609374999999998  5.569335937500001 14.734933035714285  5.4580078125 14.840959821428571  C 5.3466796875 14.946986607142858  5.21484375 15  5.0625 15  L 3.9375 15  C 3.78515625 15  3.6533203125 14.946986607142858  3.5419921875 14.840959821428571  C 3.4306640625 14.734933035714285  3.375 14.609374999999998  3.375 14.464285714285715  L 3.375 8.981584821428571  Z M 1.318359375 1.2555803571428563  C 2.1972656250000004 0.4185267857142855  3.2578125 0  4.5 0  C 5.7421875 0  6.802734375 0.4185267857142855  7.681640625 1.2555803571428563  C 8.560546875 2.092633928571429  9 3.1026785714285703  9 4.285714285714286  C 9 5.468749999999999  8.560546875 6.478794642857143  7.681640625 7.315848214285714  C 6.802734375 8.152901785714285  5.7421875 8.571428571428571  4.5 8.571428571428571  C 3.2578125 8.571428571428571  2.1972656250000004 8.152901785714285  1.318359375 7.315848214285714  C 0.439453125 6.478794642857143  0 5.468749999999999  0 4.285714285714286  C 0 3.1026785714285703  0.439453125 2.092633928571429  1.318359375 1.2555803571428563  Z M 2.71142578125 2.5823102678571437  C 3.2065429687500004 2.110770089285712  3.802734375000001 1.875  4.5 1.875  C 4.58203125 1.875  4.6494140625 1.8498883928571437  4.7021484375 1.799665178571429  C 4.7548828125 1.7494419642857144  4.78125 1.685267857142857  4.78125 1.6071428571428563  C 4.78125 1.5290178571428559  4.7548828125 1.46484375  4.7021484375 1.4146205357142856  C 4.6494140625 1.364397321428571  4.58203125 1.3392857142857144  4.5 1.3392857142857144  C 3.64453125 1.3392857142857144  2.9150390625 1.626674107142857  2.3115234375 2.2014508928571437  C 1.7080078125 2.776227678571427  1.40625 3.4709821428571415  1.40625 4.285714285714286  C 1.40625 4.363839285714285  1.4326171875 4.428013392857143  1.4853515625 4.478236607142857  C 1.5380859375 4.528459821428571  1.6054687500000002 4.553571428571429  1.6875 4.553571428571429  C 1.76953125 4.553571428571429  1.8369140625 4.528459821428571  1.8896484375 4.478236607142857  C 1.9423828125 4.428013392857143  1.96875 4.363839285714285  1.96875 4.285714285714286  C 1.96875 3.6216517857142847  2.21630859375 3.0538504464285716  2.71142578125 2.5823102678571437  Z " fill-rule="nonzero" fill="#000000" stroke="none" transform="matrix(1 0 0 1 1323 96 )" />
  </g>
</svg>