<?xml version="1.0" encoding="utf-8"?>
<svg version="1.1" xmlns:xlink="http://www.w3.org/1999/xlink" width="21px" height="23px" xmlns="http://www.w3.org/2000/svg">
  <g transform="matrix(1 0 0 1 -45 -110 )">
    <path d="M 20.536345108695652 9.219191270860078  C 20.845448369565215 9.588254172015406  21 10.03359007274283  21 10.555198973042362  L 21 12.444801026957638  C 21 12.966409927257166  20.845448369565215 13.411745827984594  20.536345108695652 13.780808729139922  C 20.22724184782609 14.14987163029525  19.825407608695652 14.334403080872915  19.330842391304348 14  L 9.287364130434783 14  L 13.467391304347824 18.674582798459564  C 13.82880434782609 19.028883183568677  14.009510869565219 19.47175866495507  14.009510869565219 20.00320924261874  C 14.009510869565219 20.534659820282414  13.82880434782609 20.977535301668805  13.467391304347824 21.33183568677792  L 12.39741847826087 22.453786906290116  C 12.045516304347826 22.817928968763372  11.617527173913043 23  11.113451086956522 23  C 10.618885869565217 23  10.186141304347826 22.817928968763372  9.815217391304348 22.453786906290116  L 0.5278532608695652 12.828626444159179  C 0.17595108695652187 12.46448438168592  0 12.021608900299528  0 11.5  C 0 10.988232777064614  0.17595108695652187 10.540436456996149  0.5278532608695652 10.156611039794608  L 9.815217391304348 0.5609756097560981  C 10.17663043478261 0.18699186991869765  10.609375 0  11.113451086956522 0  C 11.608016304347826 0  12.03600543478261 0.18699186991869765  12.39741847826087 0.5609756097560981  L 13.467391304347824 1.6534017971758663  C 13.82880434782609 2.027385537013264  14.009510869565219 2.4751818570817257  14.009510869565219 2.996790757381258  C 14.009510869565219 3.5183996576807854  13.82880434782609 3.9661959777492495  13.467391304347824 4.34017971758665  L 9.287364130434783 9  L 19.330842391304348 9  C 19.825407608695652 8.665596919127086  20.22724184782609 8.85012836970475  20.536345108695652 9.219191270860078  Z " fill-rule="nonzero" fill="#830b10" stroke="none" transform="matrix(1 0 0 1 45 110 )" />
  </g>
</svg>