<?xml version="1.0" encoding="utf-8"?>
<svg version="1.1" xmlns:xlink="http://www.w3.org/1999/xlink" width="20px" height="20px" xmlns="http://www.w3.org/2000/svg">
  <g transform="matrix(1 0 0 1 -1099 -249 )">
    <path d="M 13.216145833333332 16.549479166666668  C 13.294270833333332 16.471354166666668  13.333333333333332 16.37152777777778  13.333333333333332 16.25  L 13.333333333333332 14.166666666666664  C 13.333333333333332 14.04513888888889  13.294270833333332 13.9453125  13.216145833333332 13.8671875  C 13.138020833333332 13.7890625  13.038194444444445 13.75  12.916666666666668 13.75  L 11.666666666666668 13.75  L 11.666666666666668 7.083333333333332  C 11.666666666666668 6.961805555555555  11.627604166666668 6.861979166666668  11.549479166666668 6.783854166666668  C 11.471354166666668 6.705729166666668  11.371527777777779 6.666666666666668  11.25 6.666666666666668  L 7.083333333333334 6.666666666666668  C 6.961805555555557 6.666666666666668  6.861979166666666 6.705729166666668  6.783854166666666 6.783854166666668  C 6.705729166666666 6.861979166666668  6.666666666666666 6.961805555555555  6.666666666666666 7.083333333333332  L 6.666666666666666 9.166666666666668  C 6.666666666666666 9.288194444444445  6.705729166666666 9.388020833333332  6.783854166666666 9.466145833333332  C 6.861979166666666 9.544270833333332  6.961805555555557 9.583333333333332  7.083333333333334 9.583333333333332  L 8.333333333333334 9.583333333333332  L 8.333333333333334 13.75  L 7.083333333333334 13.75  C 6.961805555555557 13.75  6.861979166666666 13.7890625  6.783854166666666 13.8671875  C 6.705729166666666 13.9453125  6.666666666666666 14.04513888888889  6.666666666666666 14.166666666666664  L 6.666666666666666 16.25  C 6.666666666666666 16.37152777777778  6.705729166666666 16.471354166666668  6.783854166666666 16.549479166666668  C 6.861979166666666 16.627604166666668  6.961805555555557 16.666666666666668  7.083333333333334 16.666666666666668  L 12.916666666666668 16.666666666666668  C 13.038194444444445 16.666666666666668  13.138020833333332 16.627604166666668  13.216145833333332 16.549479166666668  Z M 11.549479166666668 4.8828125  C 11.627604166666668 4.8046875  11.666666666666668 4.704861111111109  11.666666666666668 4.583333333333332  L 11.666666666666668 2.5  C 11.666666666666668 2.378472222222221  11.627604166666668 2.2786458333333326  11.549479166666668 2.2005208333333326  C 11.471354166666668 2.1223958333333326  11.371527777777779 2.0833333333333326  11.25 2.0833333333333326  L 8.75 2.0833333333333326  C 8.628472222222223 2.0833333333333326  8.528645833333334 2.1223958333333326  8.450520833333334 2.2005208333333326  C 8.372395833333334 2.2786458333333326  8.333333333333334 2.378472222222221  8.333333333333334 2.5  L 8.333333333333334 4.583333333333332  C 8.333333333333334 4.704861111111109  8.372395833333334 4.8046875  8.450520833333334 4.8828125  C 8.528645833333334 4.9609375  8.628472222222223 5  8.75 5  L 11.25 5  C 11.371527777777779 5  11.471354166666668 4.9609375  11.549479166666668 4.8828125  Z M 18.658854166666668 4.98046875  C 19.552951388888886 6.512586805555554  20 8.185763888888886  20 10  C 20 11.81423611111111  19.552951388888886 13.487413194444443  18.658854166666668 15.01953125  C 17.764756944444446 16.551649305555557  16.551649305555557 17.764756944444443  15.01953125 18.658854166666668  C 13.487413194444446 19.55295138888889  11.81423611111111 20  10 20  C 8.18576388888889 20  6.512586805555555 19.55295138888889  4.98046875 18.658854166666668  C 3.4483506944444446 17.764756944444443  2.235243055555556 16.551649305555557  1.3411458333333335 15.01953125  C 0.44704861111111105 13.487413194444443  0 11.81423611111111  0 10  C 0 8.185763888888886  0.44704861111111105 6.512586805555554  1.3411458333333335 4.98046875  C 2.235243055555556 3.448350694444444  3.4483506944444446 2.2352430555555536  4.98046875 1.3411458333333326  C 6.512586805555555 0.4470486111111094  8.18576388888889 0  10 0  C 11.81423611111111 0  13.487413194444446 0.4470486111111094  15.01953125 1.3411458333333326  C 16.551649305555557 2.2352430555555536  17.764756944444446 3.448350694444444  18.658854166666668 4.98046875  Z " fill-rule="nonzero" fill="#000000" stroke="none" transform="matrix(1 0 0 1 1099 249 )" />
  </g>
</svg>