<?xml version="1.0" encoding="utf-8"?>
<svg version="1.1" xmlns:xlink="http://www.w3.org/1999/xlink" width="13px" height="13px" xmlns="http://www.w3.org/2000/svg">
  <g transform="matrix(1 0 0 1 -953 -405 )">
    <path d="M 11.384232954545455 1.6157670454545452  C 11.094933712121213 1.3264678030303019  10.74715909090909 1.181818181818182  10.34090909090909 1.181818181818182  L 2.659090909090909 1.181818181818182  C 2.252840909090909 1.181818181818182  1.9050662878787883 1.3264678030303019  1.6157670454545454 1.6157670454545452  C 1.3264678030303032 1.9050662878787872  1.1818181818181819 2.2528409090909096  1.1818181818181819 2.6590909090909096  L 1.1818181818181819 10.34090909090909  C 1.1818181818181819 10.74715909090909  1.3264678030303032 11.09493371212121  1.6157670454545454 11.384232954545455  C 1.9050662878787883 11.673532196969697  2.252840909090909 11.818181818181818  2.659090909090909 11.818181818181818  L 10.34090909090909 11.818181818181818  C 10.74715909090909 11.818181818181818  11.094933712121213 11.673532196969697  11.384232954545455 11.384232954545455  C 11.673532196969699 11.09493371212121  11.818181818181818 10.74715909090909  11.818181818181818 10.34090909090909  L 11.818181818181818 2.6590909090909096  C 11.818181818181818 2.2528409090909096  11.673532196969699 1.9050662878787872  11.384232954545455 1.6157670454545452  Z M 12.21981534090909 0.7801846590909096  C 12.739938446969699 1.3003077651515147  13 1.9266098484848468  13 2.6590909090909096  L 13 10.34090909090909  C 13 11.073390151515152  12.739938446969699 11.699692234848486  12.21981534090909 12.21981534090909  C 11.699692234848486 12.739938446969697  11.073390151515152 13  10.34090909090909 13  L 2.659090909090909 13  C 1.9266098484848488 13  1.3003077651515154 12.739938446969697  0.7801846590909091 12.21981534090909  C 0.26006155303030304 11.699692234848486  0 11.073390151515152  0 10.34090909090909  L 0 2.6590909090909096  C 0 1.9266098484848468  0.26006155303030304 1.3003077651515147  0.7801846590909091 0.7801846590909096  C 1.3003077651515154 0.26006155303030176  1.9266098484848488 0  2.659090909090909 0  L 10.34090909090909 0  C 11.073390151515152 0  11.699692234848486 0.26006155303030176  12.21981534090909 0.7801846590909096  Z " fill-rule="nonzero" fill="#000000" stroke="none" transform="matrix(1 0 0 1 953 405 )" />
  </g>
</svg>