<?xml version="1.0" encoding="utf-8"?>
<svg version="1.1" xmlns:xlink="http://www.w3.org/1999/xlink" width="15px" height="13px" xmlns="http://www.w3.org/2000/svg">
  <g transform="matrix(1 0 0 1 -953 -372 )">
    <path d="M 12.519542994588093 7.137073863636364  C 12.639807576668673 7.186316287878787  12.69993986770896 7.275568181818181  12.69993986770896 7.404829545454545  L 12.69993986770896 10.34090909090909  C 12.69993986770896 11.073390151515152  12.445880938063741 11.699692234848486  11.937763078773301 12.21981534090909  C 11.429645219482863 12.739938446969697  10.817799158147926 13  10.102224894768492 13  L 2.5977149729404694 13  C 1.8821407095610345 13  1.2702946482260975 12.739938446969697  0.7621767889356584 12.21981534090909  C 0.2540589296452194 11.699692234848486  0 11.073390151515152  0 10.34090909090909  L 0 2.6590909090909096  C 0 1.9266098484848468  0.2540589296452194 1.3003077651515147  0.7621767889356584 0.7801846590909096  C 1.2702946482260975 0.26006155303030176  1.8821407095610345 0  2.5977149729404694 0  L 10.102224894768492 0  C 10.481058328322309 0  10.832832230907997 0.07694128787878718  11.157546602525555 0.23082386363636298  C 11.24774503908599 0.273910984848484  11.301864101022248 0.3446969696969694  11.319903788334337 0.4431818181818178  C 11.337943475646423 0.5478219696969694  11.310883944678292 0.637073863636363  11.238725195429947 0.7109375  L 10.796752856283824 1.1633522727272725  C 10.736620565243538 1.2249053030303019  10.667468430547205 1.255681818181818  10.589296452194828 1.255681818181818  C 10.571256764882742 1.255681818181818  10.544197233914613 1.2495265151515147  10.508117859290438 1.2372159090909096  C 10.369813589897776 1.2002840909090904  10.234515935057125 1.181818181818182  10.102224894768492 1.181818181818182  L 2.5977149729404694 1.181818181818182  C 2.2008418520745643 1.181818181818182  1.8610944076969336 1.3264678030303019  1.5784726398075766 1.6157670454545452  C 1.2958508719182202 1.9050662878787872  1.1545399879735418 2.2528409090909096  1.1545399879735418 2.6590909090909096  L 1.1545399879735418 10.34090909090909  C 1.1545399879735418 10.74715909090909  1.2958508719182202 11.09493371212121  1.5784726398075766 11.384232954545455  C 1.8610944076969336 11.673532196969697  2.2008418520745643 11.818181818181818  2.5977149729404694 11.818181818181818  L 10.102224894768492 11.818181818181818  C 10.499098015634395 11.818181818181818  10.838845460012028 11.673532196969697  11.121467227901382 11.384232954545455  C 11.404088995790742 11.09493371212121  11.545399879735418 10.74715909090909  11.545399879735418 10.34090909090909  L 11.545399879735418 7.995738636363636  C 11.545399879735418 7.915719696969697  11.572459410703548 7.848011363636364  11.626578472639808 7.792613636363636  L 12.203848466626578 7.201704545454545  C 12.263980757666868 7.140151515151515  12.333132892363201 7.109375  12.411304870715576 7.109375  C 12.447384245339748 7.109375  12.48346361996392 7.118607954545455  12.519542994588093 7.137073863636364  Z M 15 2.363636363636363  C 15 2.566761363636363  14.927841250751655 2.7421875  14.783523752254961 2.8899147727272725  L 7.441371016235719 10.405539772727273  C 7.297053517739027 10.553267045454545  7.1256764882742045 10.627130681818182  6.927239927841251 10.627130681818182  C 6.7288033674082985 10.627130681818182  6.557426337943475 10.553267045454545  6.4131088394467834 10.405539772727273  L 2.534576067348166 6.4353693181818175  C 2.3902585688514733 6.287642045454545  2.318099819603127 6.11221590909091  2.318099819603127 5.90909090909091  C 2.318099819603127 5.705965909090908  2.3902585688514733 5.530539772727272  2.534576067348166 5.3828125  L 3.5267588695129284 4.3671875  C 3.6710763680096212 4.2194602272727275  3.842453397474444 4.14559659090909  4.040889957907396 4.14559659090909  C 4.2393265183403495 4.14559659090909  4.410703547805172 4.2194602272727275  4.5550210463018646 4.3671875  L 6.927239927841251 6.795454545454545  L 12.763078773301263 0.8217329545454548  C 12.907396271797957 0.6740056818181822  13.078773301262778 0.6001420454545452  13.27720986169573 0.6001420454545452  C 13.475646422128683 0.6001420454545452  13.647023451593506 0.6740056818181822  13.791340950090198 0.8217329545454548  L 14.783523752254961 1.8373579545454548  C 14.927841250751655 1.9850852272727275  15 2.160511363636363  15 2.363636363636363  Z " fill-rule="nonzero" fill="#000000" stroke="none" transform="matrix(1 0 0 1 953 372 )" />
  </g>
</svg>