<?xml version="1.0" encoding="utf-8"?>
<svg version="1.1" xmlns:xlink="http://www.w3.org/1999/xlink" width="18px" height="21px" xmlns="http://www.w3.org/2000/svg">
  <g transform="matrix(1 0 0 1 -5 -207 )">
    <path d="M 13.546875 0.7968750000000007  L 17.203125 4.453124999999999  C 17.421875 4.671874999999998  17.609375 4.968750000000001  17.765625 5.34375  C 17.921875 5.718750000000001  18 6.062499999999999  18 6.375000000000001  L 18 19.875  C 18 20.1875  17.890625 20.453125  17.671875 20.671875  C 17.453125000000004 20.890625  17.1875 21  16.875 21  L 1.125 21  C 0.8125000000000001 21  0.546875 20.890625  0.328125 20.671875  C 0.10937499999999999 20.453125  0 20.1875  0 19.875  L 0 1.1250000000000007  C 0 0.8124999999999994  0.10937499999999999 0.5468749999999992  0.328125 0.328125  C 0.546875 0.10937500000000078  0.8125000000000001 0  1.125 0  L 11.625 0  C 11.937500000000002 0  12.28125 0.07812500000000089  12.65625 0.23437500000000033  C 13.03125 0.3906249999999998  13.328125000000002 0.5781249999999991  13.546875 0.7968750000000007  Z M 12.48046875 1.8515625000000009  C 12.38671875 1.7578124999999991  12.226562500000002 1.6718749999999976  12 1.5937499999999991  L 12 6  L 16.40625 6  C 16.328125000000004 5.773437499999997  16.2421875 5.613281249999999  16.1484375 5.519531249999999  L 12.48046875 1.8515625000000009  Z M 1.5 19.5  L 16.5 19.5  L 16.5 7.499999999999999  L 11.625 7.499999999999999  C 11.3125 7.499999999999999  11.046875 7.390624999999998  10.828125 7.171874999999999  C 10.609375 6.953125  10.5 6.687499999999997  10.5 6.375000000000001  L 10.5 1.4999999999999993  L 1.5 1.4999999999999993  L 1.5 19.5  Z " fill-rule="nonzero" fill="#000000" stroke="none" transform="matrix(1 0 0 1 5 207 )" />
  </g>
</svg>