<?xml version="1.0" encoding="utf-8"?>
<svg version="1.1" xmlns:xlink="http://www.w3.org/1999/xlink" width="17px" height="16px" xmlns="http://www.w3.org/2000/svg">
  <g transform="matrix(1 0 0 1 -32 -4 )">
    <path d="M 16.427884615384617 5.73660995589162  C 16.809294871794872 5.797101449275363  17 5.951690821256038  17 6.200378071833649  C 17 6.348246166771686  16.911458333333336 6.5095568157949995  16.734375 6.6843100189035916  L 13.025841346153847 10.253308128544424  L 13.904447115384615 15.294265910522999  C 13.911258012820515 15.341314849821467  13.914663461538462 15.408527620247845  13.914663461538462 15.495904221802142  C 13.914663461538462 15.637051039697543  13.87890625 15.756353707204369  13.807391826923078 15.85381222432262  C 13.735877403846153 15.951270741440874  13.632011217948719 16  13.495793269230768 16  C 13.366386217948719 16  13.230168269230768 15.959672337744172  13.087139423076922 15.879017013232515  L 8.5 13.499684940138627  L 3.9128605769230766 15.879017013232515  C 3.7630208333333335 15.959672337744172  3.6268028846153846 16  3.5042067307692304 16  C 3.3611778846153846 16  3.25390625 15.951270741440874  3.1823918269230766 15.85381222432262  C 3.1108774038461537 15.756353707204369  3.075120192307692 15.637051039697543  3.075120192307692 15.495904221802142  C 3.075120192307692 15.455576559546314  3.0819310897435903 15.388363789119932  3.0955528846153846 15.294265910522999  L 3.9741586538461537 10.253308128544424  L 0.25540865384615385 6.6843100189035916  C 0.08513621794871794 6.502835538752363  0 6.341524889729049  0 6.200378071833649  C 0 5.951690821256038  0.19070512820512817 5.797101449275363  0.5721153846153846 5.73660995589162  L 5.700721153846153 5.0006301197227465  L 7.999399038461539 0.41335853812224244  C 8.128806089743591 0.13778617937408022  8.295673076923077 0  8.5 0  C 8.704326923076922 0  8.87119391025641 0.13778617937408022  9.000600961538462 0.41335853812224244  L 11.299278846153847 5.0006301197227465  L 16.427884615384617 5.73660995589162  Z " fill-rule="nonzero" fill="#000000" stroke="none" transform="matrix(1 0 0 1 32 4 )" />
  </g>
</svg>