<?xml version="1.0" encoding="utf-8"?>
<svg version="1.1" xmlns:xlink="http://www.w3.org/1999/xlink" width="18px" height="15px" xmlns="http://www.w3.org/2000/svg">
  <defs>
    <mask fill="white" id="clip247">
      <path d="M 12.75732421875 0.8251953125  C 13.252441406249996 1.375325520833286  13.5 2.037760416666714  13.5 2.8125  L 13.5 12.1875  C 13.5 12.962239583333286  13.252441406249996 13.624674479166714  12.75732421875 14.1748046875  C 12.262207031250004 14.724934895833286  11.666015625000005 15  10.96875 15  L 2.53125 15  C 1.8339843750000027 15  1.2377929687499973 14.724934895833286  0.74267578125 14.1748046875  C 0.24755859375000266 13.624674479166714  0 12.962239583333286  0 12.1875  L 0 2.8125  C 0 2.037760416666714  0.24755859375000266 1.375325520833286  0.74267578125 0.8251953125  C 1.2377929687499973 0.27506510416671404  1.8339843750000027 0  2.53125 0  L 10.96875 0  C 11.666015625000005 0  12.262207031250004 0.27506510416671404  12.75732421875 0.8251953125  Z M 17.777343749999993 6.8408203125  C 17.925781249999993 7.0263671875  18 7.24609375  18 7.5  C 18 7.753906250000001  17.925781249999993 7.973632812500001  17.777343749999993 8.1591796875  L 12.527343749999996 14.7216796875  C 12.37890625 14.9072265625  12.203125 15  11.999999999999996 15  C 11.796875000000004 15  11.621093750000004 14.9072265625  11.472656249999996 14.7216796875  C 11.32421875 14.5361328125  11.25 14.31640625  11 14.0625  L 11 0.9375  C 11.25 0.68359375  11.32421875 0.4638671875  11.472656249999996 0.2783203125  C 11.621093750000004 0.0927734375  11.796875000000004 0  11.999999999999996 0  C 12.203125 0  12.37890625 0.0927734375  12.527343749999996 0.2783203125  L 17.777343749999993 6.8408203125  Z " fill-rule="evenodd" />
    </mask>
  </defs>
  <g transform="matrix(1 0 0 1 -341 -91 )">
    <path d="M 12.75732421875 0.8251953125  C 13.252441406249996 1.375325520833286  13.5 2.037760416666714  13.5 2.8125  L 13.5 12.1875  C 13.5 12.962239583333286  13.252441406249996 13.624674479166714  12.75732421875 14.1748046875  C 12.262207031250004 14.724934895833286  11.666015625000005 15  10.96875 15  L 2.53125 15  C 1.8339843750000027 15  1.2377929687499973 14.724934895833286  0.74267578125 14.1748046875  C 0.24755859375000266 13.624674479166714  0 12.962239583333286  0 12.1875  L 0 2.8125  C 0 2.037760416666714  0.24755859375000266 1.375325520833286  0.74267578125 0.8251953125  C 1.2377929687499973 0.27506510416671404  1.8339843750000027 0  2.53125 0  L 10.96875 0  C 11.666015625000005 0  12.262207031250004 0.27506510416671404  12.75732421875 0.8251953125  Z M 17.777343749999993 6.8408203125  C 17.925781249999993 7.0263671875  18 7.24609375  18 7.5  C 18 7.753906250000001  17.925781249999993 7.973632812500001  17.777343749999993 8.1591796875  L 12.527343749999996 14.7216796875  C 12.37890625 14.9072265625  12.203125 15  11.999999999999996 15  C 11.796875000000004 15  11.621093750000004 14.9072265625  11.472656249999996 14.7216796875  C 11.32421875 14.5361328125  11.25 14.31640625  11 14.0625  L 11 0.9375  C 11.25 0.68359375  11.32421875 0.4638671875  11.472656249999996 0.2783203125  C 11.621093750000004 0.0927734375  11.796875000000004 0  11.999999999999996 0  C 12.203125 0  12.37890625 0.0927734375  12.527343749999996 0.2783203125  L 17.777343749999993 6.8408203125  Z " fill-rule="nonzero" fill="#000000" stroke="none" transform="matrix(1 0 0 1 341 91 )" />
    <path d="M 12.75732421875 0.8251953125  C 13.252441406249996 1.375325520833286  13.5 2.037760416666714  13.5 2.8125  L 13.5 12.1875  C 13.5 12.962239583333286  13.252441406249996 13.624674479166714  12.75732421875 14.1748046875  C 12.262207031250004 14.724934895833286  11.666015625000005 15  10.96875 15  L 2.53125 15  C 1.8339843750000027 15  1.2377929687499973 14.724934895833286  0.74267578125 14.1748046875  C 0.24755859375000266 13.624674479166714  0 12.962239583333286  0 12.1875  L 0 2.8125  C 0 2.037760416666714  0.24755859375000266 1.375325520833286  0.74267578125 0.8251953125  C 1.2377929687499973 0.27506510416671404  1.8339843750000027 0  2.53125 0  L 10.96875 0  C 11.666015625000005 0  12.262207031250004 0.27506510416671404  12.75732421875 0.8251953125  Z " stroke-width="2" stroke="#000000" fill="none" transform="matrix(1 0 0 1 341 91 )" mask="url(#clip247)" />
    <path d="M 17.777343749999993 6.8408203125  C 17.925781249999993 7.0263671875  18 7.24609375  18 7.5  C 18 7.753906250000001  17.925781249999993 7.973632812500001  17.777343749999993 8.1591796875  L 12.527343749999996 14.7216796875  C 12.37890625 14.9072265625  12.203125 15  11.999999999999996 15  C 11.796875000000004 15  11.621093750000004 14.9072265625  11.472656249999996 14.7216796875  C 11.32421875 14.5361328125  11.25 14.31640625  11 14.0625  L 11 0.9375  C 11.25 0.68359375  11.32421875 0.4638671875  11.472656249999996 0.2783203125  C 11.621093750000004 0.0927734375  11.796875000000004 0  11.999999999999996 0  C 12.203125 0  12.37890625 0.0927734375  12.527343749999996 0.2783203125  L 17.777343749999993 6.8408203125  Z " stroke-width="2" stroke="#000000" fill="none" transform="matrix(1 0 0 1 341 91 )" mask="url(#clip247)" />
  </g>
</svg>