<?xml version="1.0" encoding="utf-8"?>
<svg version="1.1" xmlns:xlink="http://www.w3.org/1999/xlink" width="16px" height="12px" xmlns="http://www.w3.org/2000/svg">
  <g transform="matrix(1 0 0 1 -12 -359 )">
    <path d="M 11.33984375 0.66015625  C 11.779947916666664 1.1002604166666288  12 1.6302083333333712  12 2.25  L 12 9.75  C 12 10.369791666666629  11.779947916666664 10.899739583333371  11.33984375 11.33984375  C 10.899739583333336 11.779947916666629  10.369791666666671 12  9.75 12  L 2.25 12  C 1.6302083333333357 12  1.1002604166666643 11.779947916666629  0.66015625 11.33984375  C 0.2200520833333357 10.899739583333371  0 10.369791666666629  0 9.75  L 0 2.25  C 0 1.6302083333333712  0.2200520833333357 1.1002604166666288  0.66015625 0.66015625  C 1.1002604166666643 0.22005208333337123  1.6302083333333357 0  2.25 0  L 9.75 0  C 10.369791666666671 0  10.899739583333336 0.22005208333337123  11.33984375 0.66015625  Z M 15.802083333333329 5.47265625  C 15.934027777777771 5.62109375  16 5.796875  16 6  C 16 6.203125  15.934027777777771 6.37890625  15.802083333333329 6.52734375  L 11.135416666666664 11.77734375  C 11.003472222222221 11.92578125  10.847222222222221 12  10.666666666666664 12  C 10.486111111111114 12  10.329861111111114 11.92578125  10.197916666666664 11.77734375  C 10.065972222222221 11.62890625  10 11.453125  10 11.25  L 10 0.75  C 10 0.546875  10.065972222222221 0.37109375  10.197916666666664 0.22265625  C 10.329861111111114 0.07421875  10.486111111111114 0  10.666666666666664 0  C 10.847222222222221 0  11.003472222222221 0.07421875  11.135416666666664 0.22265625  L 15.802083333333329 5.47265625  Z " fill-rule="nonzero" fill="#0000ff" stroke="none" transform="matrix(1 0 0 1 12 359 )" />
  </g>
</svg>