<?xml version="1.0" encoding="utf-8"?>
<svg version="1.1" xmlns:xlink="http://www.w3.org/1999/xlink" width="20px" height="19px" xmlns="http://www.w3.org/2000/svg">
  <g transform="matrix(1 0 0 1 -4 -181 )">
    <path d="M 19.326923076923077 6.812224322621298  C 19.775641025641026 6.884057971014494  20 7.067632850241545  20 7.362948960302458  C 20 7.538542323041377  19.895833333333336 7.730098718756562  19.6875 7.937618147448015  L 15.324519230769232 12.175803402646503  L 16.358173076923077 18.16194076874606  C 16.366185897435898 18.217811384162992  16.370192307692307 18.297626549044317  16.370192307692307 18.401386263390044  C 16.370192307692307 18.56899810964083  16.328125 18.710670027305188  16.243990384615387 18.826402016383113  C 16.15985576923077 18.94213400546104  16.03766025641026 19  15.877403846153847 19  C 15.725160256410257 19  15.564903846153847 18.952110901071205  15.396634615384615 18.85633270321361  L 10 16.03087586641462  L 4.603365384615384 18.85633270321361  C 4.427083333333334 18.952110901071205  4.266826923076923 19  4.122596153846153 19  C 3.954326923076923 19  3.828125 18.94213400546104  3.743990384615384 18.826402016383113  C 3.659855769230769 18.710670027305188  3.6177884615384617 18.56899810964083  3.6177884615384617 18.401386263390044  C 3.6177884615384617 18.35349716446125  3.6258012820512824 18.27368199957992  3.641826923076923 18.16194076874606  L 4.675480769230769 12.175803402646503  L 0.3004807692307692 7.937618147448015  C 0.1001602564102564 7.722117202268431  0 7.530560806553246  0 7.362948960302458  C 0 7.067632850241545  0.22435897435897434 6.884057971014494  0.673076923076923 6.812224322621298  L 6.706730769230768 5.938248267170762  L 9.411057692307693 0.4908632640201629  C 9.563301282051283 0.16362108800672026  9.759615384615385 0  10 0  C 10.240384615384615 0  10.436698717948719 0.16362108800672026  10.588942307692308 0.4908632640201629  L 13.293269230769232 5.938248267170762  L 19.326923076923077 6.812224322621298  Z " fill-rule="nonzero" fill="#000000" stroke="none" transform="matrix(1 0 0 1 4 181 )" />
  </g>
</svg>