<?xml version="1.0" encoding="utf-8"?>
<svg version="1.1" xmlns:xlink="http://www.w3.org/1999/xlink" width="17px" height="15px" xmlns="http://www.w3.org/2000/svg">
  <g transform="matrix(1 0 0 1 -71 -317 )">
    <path d="M 13.800426136363637 6.9140625  C 13.872869318181818 6.977982954545455  13.90909090909091 7.05965909090909  13.90909090909091 7.159090909090909  L 13.90909090909091 7.840909090909091  C 13.90909090909091 7.940340909090908  13.872869318181818 8.022017045454545  13.800426136363637 8.0859375  C 13.727982954545453 8.149857954545455  13.63541666666667 8.181818181818182  13.522727272727272 8.181818181818182  L 9.272727272727272 8.181818181818182  L 9.272727272727272 11.931818181818182  C 9.272727272727272 12.031249999999998  9.236505681818182 12.112926136363637  9.1640625 12.17684659090909  C 9.091619318181818 12.240767045454545  8.999053030303031 12.272727272727272  8.886363636363637 12.272727272727272  L 8.113636363636363 12.272727272727272  C 8.00094696969697 12.272727272727272  7.908380681818182 12.240767045454545  7.8359375 12.17684659090909  C 7.763494318181818 12.112926136363637  7.727272727272727 12.031249999999998  7.727272727272727 11.931818181818182  L 7.727272727272727 8.181818181818182  L 3.4772727272727275 8.181818181818182  C 3.3645833333333335 8.181818181818182  3.2720170454545454 8.149857954545455  3.1995738636363633 8.0859375  C 3.127130681818182 8.022017045454545  3.090909090909091 7.940340909090908  3.090909090909091 7.840909090909091  L 3.090909090909091 7.159090909090909  C 3.090909090909091 7.05965909090909  3.127130681818182 6.977982954545455  3.1995738636363633 6.9140625  C 3.2720170454545454 6.850142045454545  3.3645833333333335 6.818181818181818  3.4772727272727275 6.818181818181818  L 7.727272727272727 6.818181818181818  L 7.727272727272727 3.068181818181819  C 7.727272727272727 2.968749999999998  7.763494318181818 2.887073863636364  7.8359375 2.823153409090909  C 7.908380681818182 2.7592329545454546  8.00094696969697 2.7272727272727266  8.113636363636363 2.7272727272727266  L 8.886363636363637 2.7272727272727266  C 8.999053030303031 2.7272727272727266  9.091619318181818 2.7592329545454546  9.1640625 2.823153409090909  C 9.236505681818182 2.887073863636364  9.272727272727272 2.968749999999998  9.272727272727272 3.068181818181819  L 9.272727272727272 6.818181818181818  L 13.522727272727272 6.818181818181818  C 13.63541666666667 6.818181818181818  13.727982954545453 6.850142045454545  13.800426136363637 6.9140625  Z M 14.887073863636363 13.13565340909091  C 15.26538825757576 12.801846590909088  15.454545454545453 12.400568181818182  15.454545454545453 11.931818181818182  L 15.454545454545453 3.068181818181819  C 15.454545454545453 2.599431818181819  15.26538825757576 2.1981534090909083  14.887073863636363 1.8643465909090906  C 14.50875946969697 1.5305397727272712  14.053977272727272 1.3636363636363642  13.522727272727272 1.3636363636363642  L 3.4772727272727275 1.3636363636363642  C 2.9460227272727275 1.3636363636363642  2.4912405303030307 1.5305397727272712  2.1129261363636362 1.8643465909090906  C 1.7346117424242427 2.1981534090909083  1.5454545454545454 2.599431818181819  1.5454545454545454 3.068181818181819  L 1.5454545454545454 11.931818181818182  C 1.5454545454545454 12.400568181818182  1.7346117424242427 12.801846590909088  2.1129261363636362 13.13565340909091  C 2.4912405303030307 13.469460227272727  2.9460227272727275 13.636363636363637  3.4772727272727275 13.636363636363637  L 13.522727272727272 13.636363636363637  C 14.053977272727272 13.636363636363637  14.50875946969697 13.469460227272727  14.887073863636363 13.13565340909091  Z M 15.979758522727272 0.9002130681818188  C 16.659919507575758 1.5003551136363629  17 2.223011363636362  17 3.068181818181819  L 17 11.931818181818182  C 17 12.776988636363637  16.659919507575758 13.499644886363637  15.979758522727272 14.099786931818182  C 15.299597537878789 14.699928977272727  14.480587121212123 15  13.522727272727272 15  L 3.4772727272727275 15  C 2.5194128787878793 15  1.7004024621212124 14.699928977272727  1.0202414772727273 14.099786931818182  C 0.34008049242424243 13.499644886363637  0 12.776988636363637  0 11.931818181818182  L 0 3.068181818181819  C 0 2.223011363636362  0.34008049242424243 1.5003551136363629  1.0202414772727273 0.9002130681818188  C 1.7004024621212124 0.30007102272727126  2.5194128787878793 0  3.4772727272727275 0  L 13.522727272727272 0  C 14.480587121212123 0  15.299597537878789 0.30007102272727126  15.979758522727272 0.9002130681818188  Z " fill-rule="nonzero" fill="#000000" stroke="none" transform="matrix(1 0 0 1 71 317 )" />
  </g>
</svg>