<?xml version="1.0" encoding="utf-8"?>
<svg version="1.1" xmlns:xlink="http://www.w3.org/1999/xlink" width="20px" height="16px" xmlns="http://www.w3.org/2000/svg">
  <g transform="matrix(1 0 0 1 -4 -156 )">
    <path d="M 12.083333333333332 11.2  L 13.3203125 8.8  L 17.434895833333332 8.8  C 17.42621527777778 8.775  17.415364583333332 8.739583333333332  17.40234375 8.69375  C 17.389322916666668 8.647916666666665  17.37847222222222 8.616666666666665  17.369791666666668 8.6  L 14.609375 2.4000000000000004  L 5.390625 2.4000000000000004  L 2.630208333333333 8.6  C 2.6215277777777786 8.625  2.610677083333334 8.660416666666666  2.59765625 8.70625  C 2.584635416666667 8.752083333333333  2.5737847222222228 8.783333333333333  2.565104166666667 8.8  L 6.6796875 8.8  L 7.916666666666666 11.2  L 12.083333333333332 11.2  Z M 19.674479166666668 7.637499999999999  C 19.891493055555554 8.145833333333332  20 8.658333333333333  20 9.175  L 20 15.2  C 20 15.416666666666666  19.91753472222222 15.604166666666666  19.752604166666668 15.7625  C 19.587673611111114 15.920833333333334  19.392361111111114 16  19.166666666666668 16  L 0.8333333333333333 16  C 0.607638888888889 16  0.4123263888888889 15.920833333333334  0.24739583333333331 15.7625  C 0.08246527777777778 15.604166666666666  0 15.416666666666666  0 15.2  L 0 9.175  C 0 8.658333333333333  0.10850694444444442 8.145833333333332  0.32552083333333337 7.637499999999999  L 3.424479166666667 0.7375000000000007  C 3.5112847222222228 0.529166666666665  3.6697048611111116 0.3541666666666661  3.899739583333333 0.21250000000000036  C 4.129774305555555 0.07083333333333108  4.357638888888889 0  4.583333333333333 0  L 15.416666666666668 0  C 15.642361111111114 0  15.870225694444446 0.07083333333333108  16.100260416666668 0.21250000000000036  C 16.33029513888889 0.3541666666666661  16.48871527777778 0.529166666666665  16.575520833333332 0.7375000000000007  L 19.674479166666668 7.637499999999999  Z " fill-rule="nonzero" fill="#000000" stroke="none" transform="matrix(1 0 0 1 4 156 )" />
  </g>
</svg>