<?xml version="1.0" encoding="utf-8"?>
<svg version="1.1" xmlns:xlink="http://www.w3.org/1999/xlink" width="21px" height="17px" xmlns="http://www.w3.org/2000/svg">
  <g transform="matrix(1 0 0 1 -9 -4 )">
    <path d="M 17.52736019242333 9.333096590909092  C 17.69573060733614 9.39749053030303  17.779915814792545 9.514204545454543  17.779915814792545 9.683238636363637  L 17.779915814792545 13.522727272727272  C 17.779915814792545 14.480587121212121  17.42423331328924 15.299597537878789  16.712868310282623 15.979758522727272  C 16.001503307276007 16.659919507575758  15.144918821407098 17  14.143114852675888 17  L 3.6368009621166566 17  C 2.6349969933854482 17  1.7784125075165365 16.659919507575758  1.067047504509922 15.979758522727272  C 0.3556825015033072 15.299597537878789  0 14.480587121212121  0 13.522727272727272  L 0 3.477272727272728  C 0 2.5194128787878767  0.3556825015033072 1.7004024621212115  1.067047504509922 1.020241477272728  C 1.7784125075165365 0.34008049242424077  2.6349969933854482 0  3.6368009621166566 0  L 14.143114852675888 0  C 14.673481659651232 0  15.165965123271196 0.10061553030302939  15.620565243535777 0.30184659090909005  C 15.746843054720385 0.35819128787878673  15.822609741431148 0.45075757575757536  15.84786530366807 0.579545454545454  C 15.873120865904992 0.7163825757575754  15.835237522549608 0.83309659090909  15.734215273601926 0.9296875  L 15.115453998797355 1.521306818181818  C 15.031268791340953 1.6017992424242409  14.934455802766086 1.6420454545454541  14.82501503307276 1.6420454545454541  C 14.79975947083584 1.6420454545454541  14.761876127480456 1.6339962121212115  14.711365003006614 1.617897727272728  C 14.517739025856887 1.569602272727272  14.328322309079976 1.5454545454545459  14.143114852675888 1.5454545454545459  L 3.6368009621166566 1.5454545454545459  C 3.08117859290439 1.5454545454545459  2.605532170775707 1.7346117424242409  2.2098616957306074 2.112926136363636  C 1.8141912206855084 2.4912405303030294  1.6163559831629586 2.946022727272728  2 3.477272727272728  L 2 13.522727272727272  C 1.6163559831629586 14.053977272727272  1.8141912206855084 14.508759469696967  2.2098616957306074 14.887073863636363  C 2.605532170775707 15.265388257575758  3.08117859290439 15.454545454545453  3.6368009621166566 15.454545454545453  L 14.143114852675888 15.454545454545453  C 14.698737221888154 15.454545454545453  15.174383644016839 15.265388257575758  15.570054119061936 14.887073863636363  C 15.965724594107039 14.508759469696967  16.163559831629584 14.053977272727272  16.163559831629584 13.522727272727272  L 16.163559831629584 10.455965909090908  C 16.163559831629584 10.351325757575758  16.201443174984966 10.262784090909092  16.27720986169573 10.190340909090908  L 17.08538785327721 9.417613636363637  C 17.169573060733615 9.337121212121211  17.26638604930848 9.296875  17.375826819001805 9.296875  C 17.426337943475648 9.296875  17.476849067949487 9.308948863636363  17.52736019242333 9.333096590909092  Z M 21 3.09090909090909  C 21 3.35653409090909  20.898977751052318 3.5859375  20.696933253156946 3.779119318181818  L 10.417919422730007 13.607244318181818  C 10.215874924834639 13.800426136363637  9.975947083583886 13.897017045454547  9.698135898977752 13.897017045454547  C 9.420324714371617 13.897017045454547  9.180396873120864 13.800426136363637  8.978352375225496 13.607244318181818  L 3.5484064942874323 8.415482954545453  C 3.3463619963920626 8.222301136363637  3.2453397474443775 7.992897727272728  3.2453397474443775 7.727272727272728  C 3.2453397474443775 7.461647727272726  3.3463619963920626 7.232244318181817  3.5484064942874323 7.0390625  L 4.937462417318099 5.7109375  C 5.139506915213469 5.517755681818182  5.379434756464221 5.421164772727272  5.6572459410703555 5.421164772727272  C 5.935057125676489 5.421164772727272  6.17498496692724 5.517755681818182  6.37702946482261 5.7109375  L 9.698135898977752 8.886363636363637  L 17.86831028262177 1.074573863636364  C 18.07035478051714 0.881392045454546  18.31028262176789 0.784801136363636  18.588093806374022 0.784801136363636  C 18.865904990980155 0.784801136363636  19.10583283223091 0.881392045454546  19.307877330126278 1.074573863636364  L 20.696933253156946 2.402698863636364  C 20.898977751052318 2.595880681818182  21 2.82528409090909  21 3.09090909090909  Z " fill-rule="nonzero" fill="#000000" stroke="none" transform="matrix(1 0 0 1 9 4 )" />
  </g>
</svg>