<?xml version="1.0" encoding="utf-8"?>
<svg version="1.1" xmlns:xlink="http://www.w3.org/1999/xlink" width="17px" height="17px" xmlns="http://www.w3.org/2000/svg">
  <g transform="matrix(1 0 0 1 -10 -4 )">
    <path d="M 14.887073863636363 2.112926136363636  C 14.50875946969697 1.7346117424242409  14.053977272727272 1.5454545454545459  13.522727272727272 1.5454545454545459  L 3.4772727272727275 1.5454545454545459  C 2.9460227272727275 1.5454545454545459  2.4912405303030307 1.7346117424242409  2.1129261363636362 2.112926136363636  C 1.7346117424242427 2.4912405303030294  1.5454545454545454 2.946022727272728  1.5454545454545454 3.477272727272728  L 1.5454545454545454 13.522727272727272  C 1.5454545454545454 14.053977272727272  1.7346117424242427 14.508759469696967  2.1129261363636362 14.887073863636363  C 2.4912405303030307 15.265388257575758  2.9460227272727275 15.454545454545453  3.4772727272727275 15.454545454545453  L 13.522727272727272 15.454545454545453  C 14.053977272727272 15.454545454545453  14.50875946969697 15.265388257575758  14.887073863636363 14.887073863636363  C 15.26538825757576 14.508759469696967  15.454545454545453 14.053977272727272  15.454545454545453 13.522727272727272  L 15.454545454545453 3.477272727272728  C 15.454545454545453 2.946022727272728  15.26538825757576 2.4912405303030294  14.887073863636363 2.112926136363636  Z M 15.979758522727272 1.020241477272728  C 16.659919507575758 1.7004024621212115  17 2.5194128787878767  17 3.477272727272728  L 17 13.522727272727272  C 17 14.480587121212121  16.659919507575758 15.299597537878789  15.979758522727272 15.979758522727272  C 15.299597537878789 16.659919507575758  14.480587121212123 17  13.522727272727272 17  L 3.4772727272727275 17  C 2.5194128787878793 17  1.7004024621212124 16.659919507575758  1.0202414772727273 15.979758522727272  C 0.34008049242424243 15.299597537878789  0 14.480587121212121  0 13.522727272727272  L 0 3.477272727272728  C 0 2.5194128787878767  0.34008049242424243 1.7004024621212115  1.0202414772727273 1.020241477272728  C 1.7004024621212124 0.34008049242424077  2.5194128787878793 0  3.4772727272727275 0  L 13.522727272727272 0  C 14.480587121212123 0  15.299597537878789 0.34008049242424077  15.979758522727272 1.020241477272728  Z " fill-rule="nonzero" fill="#000000" stroke="none" transform="matrix(1 0 0 1 10 4 )" />
  </g>
</svg>