<?xml version="1.0" encoding="utf-8"?>
<svg version="1.1" xmlns:xlink="http://www.w3.org/1999/xlink" width="14px" height="15px" xmlns="http://www.w3.org/2000/svg">
  <g transform="matrix(1 0 0 1 -205 -91 )">
    <path d="M 8.455528846153847 7.314453125000001  C 8.56209935897436 7.190755208333332  8.615384615384617 7.044270833333332  8.615384615384617 6.875000000000001  C 8.615384615384617 6.705729166666666  8.56209935897436 6.559244791666666  8.455528846153847 6.435546875000001  C 8.348958333333334 6.311848958333334  8.222756410256412 6.249999999999999  8.076923076923077 6.249999999999999  L 5.923076923076923 6.249999999999999  C 5.77724358974359 6.249999999999999  5.651041666666667 6.311848958333334  5.544471153846154 6.435546875000001  C 5.437900641025641 6.559244791666666  5.384615384615385 6.705729166666666  5.384615384615385 6.875000000000001  C 5.384615384615385 7.044270833333332  5.437900641025641 7.190755208333332  5.544471153846154 7.314453125000001  C 5.651041666666667 7.438151041666666  5.77724358974359 7.5  5.923076923076923 7.5  L 8.076923076923077 7.5  C 8.222756410256412 7.5  8.348958333333334 7.438151041666666  8.455528846153847 7.314453125000001  Z M 13.301682692307692 4.560546875000001  C 13.408253205128204 4.684244791666666  13.461538461538462 4.830729166666666  13.461538461538462 5.000000000000001  L 13.461538461538462 14.375  C 13.461538461538462 14.544270833333332  13.408253205128204 14.690755208333332  13.301682692307692 14.814453125  C 13.19511217948718 14.938151041666668  13.068910256410259 15  12.923076923076923 15  L 1.076923076923077 15  C 0.9310897435897438 15  0.8048878205128207 14.938151041666668  0.6983173076923077 14.814453125  C 0.5917467948717949 14.690755208333332  0.5384615384615385 14.544270833333332  0.5384615384615385 14.375  L 0.5384615384615385 5.000000000000001  C 0.5384615384615385 4.830729166666666  0.5917467948717949 4.684244791666666  0.6983173076923077 4.560546875000001  C 0.8048878205128207 4.436848958333332  0.9310897435897438 4.374999999999999  1.076923076923077 4.374999999999999  L 12.923076923076923 4.374999999999999  C 13.068910256410259 4.374999999999999  13.19511217948718 4.436848958333332  13.301682692307692 4.560546875000001  Z M 13.84014423076923 0.18554687499999944  C 13.946714743589746 0.30924479166666463  14.000000000000004 0.45572916666666463  14 0.6249999999999994  L 14 3.1250000000000004  C 14.000000000000004 3.294270833333332  13.946714743589746 3.440755208333332  13.84014423076923 3.5644531250000004  C 13.733573717948719 3.6881510416666656  13.607371794871796 3.75  13.461538461538462 4  L 0.5384615384615385 4  C 0.3926282051282053 3.75  0.2664262820512822 3.6881510416666656  0.15985576923076922 3.5644531250000004  C 0.053285256410256485 3.440755208333332  0 3.294270833333332  0 3.1250000000000004  L 0 0.6249999999999994  C 0 0.45572916666666463  0.053285256410256485 0.30924479166666463  0.15985576923076922 0.18554687499999944  C 0.2664262820512822 0.06184895833333259  0.3926282051282053 0  0.5384615384615385 0  L 13.461538461538462 0  C 13.607371794871796 0  13.733573717948719 0.06184895833333259  13.84014423076923 0.18554687499999944  Z " fill-rule="nonzero" fill="#000000" stroke="none" transform="matrix(1 0 0 1 205 91 )" />
  </g>
</svg>