<?xml version="1.0" encoding="utf-8"?>
<svg version="1.1" xmlns:xlink="http://www.w3.org/1999/xlink" width="10px" height="15px" xmlns="http://www.w3.org/2000/svg">
  <g transform="matrix(1 0 0 1 -777 -677 )">
    <path d="M 1.181640625 14.873046875  C 0.5826822916666666 14.931640625  0.18880208333333337 14.967447916666668  0 14.98046875  L 0.166015625 14.150390625  C 0.30924479166666674 14.104817708333332  0.5094401041666667 14.051106770833332  0.7666015625 13.9892578125  C 1.0237630208333335 13.927408854166668  1.2581380208333335 13.865559895833334  1.4697265625 13.8037109375  C 1.681315104166667 13.741861979166668  1.875 13.665364583333332  2.05078125 13.57421875  C 2.233072916666667 13.346354166666668  2.3665364583333335 13.017578125  2.451171875 12.587890625  C 2.457682291666667 12.542317708333332  2.659505208333334 11.6015625  3.056640625 9.765625000000002  C 3.453776041666667 7.929687499999999  3.824869791666667 6.160481770833333  4.169921875 4.458007812500001  C 4.514973958333334 2.7555338541666647  4.684244791666668 1.7903645833333326  4.677734375 1.5624999999999996  L 4.677734375 1.318359375  C 4.521484375 1.2337239583333326  4.344075520833334 1.1735026041666647  4.1455078125 1.1376953124999996  C 3.946940104166667 1.1018880208333326  3.720703125 1.0758463541666652  3.466796875 1.0595703125000004  C 3.212890625 1.0432942708333326  3.024088541666667 1.025390625  2.900390625 1.0058593749999996  L 3.0859375 0  C 3.30078125 0.013020833333332038  3.69140625 0.034179687500000555  4.2578125 0.06347656250000056  C 4.82421875 0.09277343750000056  5.310872395833334 0.11555989583333204  5.7177734375 0.1318359375  C 6.124674479166668 0.14811197916666463  6.516927083333334 0.15624999999999944  6.89453125 0.15624999999999944  C 7.20703125 0.15624999999999944  7.527669270833334 0.14811197916666463  7.8564453125 0.1318359375  C 8.185221354166668 0.11555989583333204  8.579101562500002 0.09277343750000056  9.0380859375 0.06347656250000056  C 9.497070312500002 0.034179687500000555  9.817708333333336 0.013020833333332038  10 0  C 9.967447916666668 0.25390625000000056  9.905598958333334 0.5436197916666646  9.814453125 0.8691406250000006  C 9.619140625000002 0.9342447916666657  9.288736979166668 1.0270182291666647  8.8232421875 1.1474609375000004  C 8.357747395833334 1.267903645833333  8.004557291666668 1.376953125  7.763671875 1.4746093749999996  C 7.711588541666668 1.5983072916666647  7.666015625 1.736653645833333  7.626953125 1.8896484375  C 7.587890625 2.042643229166665  7.55859375 2.1728515625000004  7.5390625 2.2802734374999996  C 7.51953125 2.3876953125  7.4951171875 2.5358072916666647  7.4658203125 2.724609375  C 7.4365234375 2.913411458333332  7.415364583333334 3.0501302083333326  7.40234375 3.134765625  C 7.2265625 4.098307291666666  6.941731770833334 5.463867187499998  6.5478515625 7.231445312499999  C 6.153971354166668 8.999023437499998  5.901692708333334 10.156249999999998  5.791015625 10.703125000000002  C 5.777994791666668 10.761718750000002  5.735677083333334 10.950520833333332  5.6640625 11.26953125  C 5.592447916666668 11.588541666666668  5.52734375 11.881510416666668  5.46875 12.1484375  C 5.41015625 12.415364583333334  5.358072916666668 12.687174479166668  5.3125 12.9638671875  C 5.266927083333334 13.240559895833332  5.247395833333334 13.427734375  5.25390625 13.525390625  L 5.263671875 13.701171875  C 5.374348958333334 13.727213541666668  5.9765625 13.828125  7.0703125 14.00390625  C 7.05078125 14.290364583333334  6.998697916666668 14.612630208333334  6.9140625 14.970703125  C 6.842447916666668 14.970703125  6.736653645833334 14.9755859375  6.5966796875 14.9853515625  C 6.456705729166668 14.9951171875  6.350911458333334 15  6.279296875 15  C 6.090494791666668 15  5.807291666666668 14.967447916666668  5.4296875 14.90234375  C 5.052083333333334 14.837239583333332  4.772135416666668 14.8046875  4.58984375 14.8046875  C 3.69140625 14.791666666666668  3.020833333333334 14.78515625  2.578125 14.78515625  C 2.2460937500000004 14.78515625  1.7805989583333337 14.814453125  1.181640625 14.873046875  Z " fill-rule="nonzero" fill="#000000" stroke="none" transform="matrix(1 0 0 1 777 677 )" />
  </g>
</svg>