<?xml version="1.0" encoding="utf-8"?>
<svg version="1.1" xmlns:xlink="http://www.w3.org/1999/xlink" width="130px" height="60px" xmlns="http://www.w3.org/2000/svg">
  <defs>
    <mask fill="white" id="clip8">
      <path d="M 0 50  L 0 20.56603773584905  L 0 10  C 0 4.400000000000006  4.3999999999999995 0  10 0  L 120 0  C 125.6 0  130 4.400000000000006  130 10  L 130 50  C 130 55.599999999999994  125.6 60  120 60  L 10 60  C 4.3999999999999995 60  0 55.599999999999994  0 50  Z " fill-rule="evenodd" />
    </mask>
  </defs>
  <g transform="matrix(1 0 0 1 -5 -81 )">
    <path d="M 0 50  L 0 20.56603773584905  L 0 10  C 0 4.400000000000006  4.3999999999999995 0  10 0  L 120 0  C 125.6 0  130 4.400000000000006  130 10  L 130 50  C 130 55.599999999999994  125.6 60  120 60  L 10 60  C 4.3999999999999995 60  0 55.599999999999994  0 50  Z " fill-rule="nonzero" fill="#ffffff" stroke="none" transform="matrix(1 0 0 1 5 81 )" />
    <path d="M 0 50  L 0 20.56603773584905  L 0 10  C 0 4.400000000000006  4.3999999999999995 0  10 0  L 120 0  C 125.6 0  130 4.400000000000006  130 10  L 130 50  C 130 55.599999999999994  125.6 60  120 60  L 10 60  C 4.3999999999999995 60  0 55.599999999999994  0 50  Z " stroke-width="2" stroke="#a0a0a0" fill="none" transform="matrix(1 0 0 1 5 81 )" mask="url(#clip8)" />
  </g>
</svg>