<?xml version="1.0" encoding="utf-8"?>
<svg version="1.1" xmlns:xlink="http://www.w3.org/1999/xlink" width="15px" height="15px" xmlns="http://www.w3.org/2000/svg">
  <g transform="matrix(1 0 0 1 -171 -91 )">
    <path d="M 13.13565340909091 1.8643465909090906  C 12.801846590909092 1.5305397727272712  12.400568181818182 1.3636363636363642  11.931818181818182 1.3636363636363642  L 3.0681818181818183 1.3636363636363642  C 2.5994318181818183 1.3636363636363642  2.1981534090909096 1.5305397727272712  1.8643465909090908 1.8643465909090906  C 1.530539772727273 2.1981534090909083  1.3636363636363638 2.599431818181819  1.3636363636363638 3.068181818181819  L 1.3636363636363638 11.931818181818182  C 1.3636363636363638 12.400568181818182  1.530539772727273 12.801846590909088  1.8643465909090908 13.13565340909091  C 2.1981534090909096 13.469460227272727  2.5994318181818183 13.636363636363637  3.0681818181818183 13.636363636363637  L 11.931818181818182 13.636363636363637  C 12.400568181818182 13.636363636363637  12.801846590909092 13.469460227272727  13.13565340909091 13.13565340909091  C 13.469460227272728 12.801846590909088  13.636363636363637 12.400568181818182  13.636363636363637 11.931818181818182  L 13.636363636363637 3.068181818181819  C 13.636363636363637 2.599431818181819  13.469460227272728 2.1981534090909083  13.13565340909091 1.8643465909090906  Z M 14.099786931818182 0.9002130681818188  C 14.699928977272728 1.5003551136363629  15 2.223011363636362  15 3.068181818181819  L 15 11.931818181818182  C 15 12.776988636363637  14.699928977272728 13.499644886363637  14.099786931818182 14.099786931818182  C 13.499644886363637 14.699928977272727  12.776988636363638 15  11.931818181818182 15  L 3.0681818181818183 15  C 2.2230113636363638 15  1.5003551136363638 14.699928977272727  0.9002130681818181 14.099786931818182  C 0.3000710227272727 13.499644886363637  0 12.776988636363637  0 11.931818181818182  L 0 3.068181818181819  C 0 2.223011363636362  0.3000710227272727 1.5003551136363629  0.9002130681818181 0.9002130681818188  C 1.5003551136363638 0.30007102272727126  2.2230113636363638 0  3.0681818181818183 0  L 11.931818181818182 0  C 12.776988636363638 0  13.499644886363637 0.30007102272727126  14.099786931818182 0.9002130681818188  Z " fill-rule="nonzero" fill="#000000" stroke="none" transform="matrix(1 0 0 1 171 91 )" />
  </g>
</svg>