<?xml version="1.0" encoding="utf-8"?>
<svg version="1.1" xmlns:xlink="http://www.w3.org/1999/xlink" width="13px" height="15px" xmlns="http://www.w3.org/2000/svg">
  <g transform="matrix(1 0 0 1 -172 -91 )">
    <path d="M 12.712975543478262 6.0125160462130935  C 12.904325181159418 6.253209242618743  13 6.54364569961489  13 6.88382541720154  L 13 8.11617458279846  C 13 8.456354300385108  12.904325181159418 8.746790757381257  12.712975543478262 8.987483953786906  C 12.521625905797103 9.228177150192554  12.272871376811596 9.34852374839538  11.966711956521738 9.34852374839538  L 5.749320652173913 9.34852374839538  L 8.336956521739129 12.179075738125801  C 8.560688405797103 12.410141206675224  8.672554347826088 12.698973042362002  8.672554347826088 13.045571245186135  C 8.672554347826088 13.39216944801027  8.560688405797103 13.681001283697046  8.336956521739129 13.91206675224647  L 7.674592391304348 14.64377406931964  C 7.456748188405798 14.881258023106547  7.191802536231884 15  6.879755434782608 15  C 6.573596014492754 15  6.305706521739131 14.881258023106547  6.076086956521739 14.64377406931964  L 0.3267663043478261 8.366495507060334  C 0.10892210144927544 8.129011553273427  0 7.840179717586649  0 7.5  C 0 7.166238767650834  0.10892210144927544 6.874197689345315  0.3267663043478261 6.62387676508344  L 6.076086956521739 0.3658536585365857  C 6.299818840579711 0.12195121951219412  6.567708333333334 0  6.879755434782608 0  C 7.185914855072464 0  7.450860507246378 0.12195121951219412  7.674592391304348 0.3658536585365857  L 8.336956521739129 1.0783055198973042  C 8.560688405797103 1.322207958921694  8.672554347826088 1.6142490372272122  8.672554347826088 1.954428754813864  C 8.672554347826088 2.2946084724005122  8.560688405797103 2.5866495507060323  8.336956521739129 2.8305519897304237  L 5.749320652173913 5.651476251604622  L 11.966711956521738 5.651476251604622  C 12.272871376811596 5.651476251604622  12.521625905797103 5.771822849807445  12.712975543478262 6.0125160462130935  Z " fill-rule="nonzero" fill="#000000" stroke="none" transform="matrix(1 0 0 1 172 91 )" />
  </g>
</svg>