<?xml version="1.0" encoding="utf-8"?>
<svg version="1.1" xmlns:xlink="http://www.w3.org/1999/xlink" width="18px" height="15px" xmlns="http://www.w3.org/2000/svg">
  <g transform="matrix(1 0 0 1 -171 -91 )">
    <path d="M 15.023451593505712 8.235085227272728  C 15.167769092002407 8.291903409090908  15.239927841250752 8.394886363636363  15.239927841250752 8.54403409090909  L 15.239927841250752 11.931818181818182  C 15.239927841250752 12.776988636363637  14.93505712567649 13.499644886363637  14.325315694527962 14.099786931818182  C 13.715574263379434 14.699928977272727  12.981358989777512 15  12.12266987372219 15  L 3.117257967528563 15  C 2.2585688514732416 15  1.524353577871317 14.699928977272727  0.9146121467227901 14.099786931818182  C 0.3048707155742633 13.499644886363637  0 12.776988636363637  0 11.931818181818182  L 0 3.068181818181819  C 0 2.223011363636362  0.3048707155742633 1.5003551136363629  0.9146121467227901 0.9002130681818188  C 1.524353577871317 0.30007102272727126  2.2585688514732416 0  3.117257967528563 0  L 12.12266987372219 0  C 12.57726999398677 0  12.999398677089596 0.08877840909090828  13.389055923030666 0.2663352272727265  C 13.497294046903187 0.31605113636363535  13.562236921226697 0.3977272727272724  13.583884546001203 0.5113636363636359  C 13.605532170775707 0.6321022727272724  13.57306073361395 0.7350852272727265  13.486470234515936 0.8203125  L 12.95610342754059 1.3423295454545454  C 12.883944678292245 1.4133522727272712  12.800962116656645 1.4488636363636358  12.707155742633795 1.4488636363636358  C 12.68550811785929 1.4488636363636358  12.653036680697534 1.4417613636363629  12.609741431148526 1.4275568181818188  C 12.443776307877332 1.3849431818181812  12.28141912206855 1.3636363636363642  12.12266987372219 1.3636363636363642  L 3.117257967528563 1.3636363636363642  C 2.641010222489477 1.3636363636363642  2.2333132892363206 1.5305397727272712  1.8941671677690919 1.8643465909090906  C 1.5550210463018643 2.1981534090909083  1.3854479855682502 2.599431818181819  1.3854479855682502 3.068181818181819  L 1.3854479855682502 11.931818181818182  C 1.3854479855682502 12.400568181818182  1.5550210463018643 12.801846590909088  1.8941671677690919 13.13565340909091  C 2.2333132892363206 13.469460227272727  2.641010222489477 13.636363636363637  3.117257967528563 13.636363636363637  L 12.12266987372219 13.636363636363637  C 12.598917618761273 13.636363636363637  13.006614552014433 13.469460227272727  13.34576067348166 13.13565340909091  C 13.68490679494889 12.801846590909088  13.854479855682502 12.400568181818182  13.854479855682502 11.931818181818182  L 13.854479855682502 9.225852272727272  C 13.854479855682502 9.133522727272727  13.886951292844257 9.055397727272728  13.951894167167769 8.991477272727272  L 14.644618159951895 8.30965909090909  C 14.716776909200242 8.238636363636363  14.799759470835841 8.203125  14.89356584485869 8.203125  C 14.936861094407696 8.203125  14.980156343956704 8.21377840909091  15.023451593505712 8.235085227272728  Z M 18 2.7272727272727266  C 18 2.9616477272727266  17.913409500901984 3.1640625  17.740228502705953 3.3345170454545454  L 8.929645219482863 12.006392045454545  C 8.756464221286832 12.17684659090909  8.550811785929046 12.262073863636363  8.312687913409501 12.262073863636363  C 8.074564040889959 12.262073863636363  7.86891160553217 12.17684659090909  7.69573060733614 12.006392045454545  L 3.041491280817799 7.425426136363636  C 2.868310282621768 7.254971590909091  2.7817197835237524 7.052556818181818  2.7817197835237524 6.818181818181818  C 2.7817197835237524 6.5838068181818175  2.868310282621768 6.381392045454543  3.041491280817799 6.2109375  L 4.232110643415514 5.0390625  C 4.405291641611545 4.868607954545455  4.610944076969332 4.783380681818182  4.849067949488876 4.783380681818182  C 5.087191822008419 4.783380681818182  5.292844257366205 4.868607954545455  5.466025255562237 5.0390625  L 8.312687913409501 7.840909090909091  L 15.315694527961517 0.9481534090909094  C 15.488875526157548 0.7776988636363641  15.694527961515334 0.6924715909090906  15.932651834034878 0.6924715909090906  C 16.17077570655442 0.6924715909090906  16.376428141912207 0.7776988636363641  16.549609140108238 0.9481534090909094  L 17.740228502705953 2.120028409090909  C 17.913409500901984 2.2904829545454546  18 2.4928977272727266  18 2.7272727272727266  Z " fill-rule="nonzero" fill="#000000" stroke="none" transform="matrix(1 0 0 1 171 91 )" />
  </g>
</svg>