<?xml version="1.0" encoding="utf-8"?>
<svg version="1.1" xmlns:xlink="http://www.w3.org/1999/xlink" width="15px" height="15px" xmlns="http://www.w3.org/2000/svg">
  <g transform="matrix(1 0 0 1 -1322 -92 )">
    <path d="M 11.162109375 7.275390624999999  C 11.220703125 7.333984374999999  11.25 7.408854166666666  11.25 7.5  C 11.25 7.591145833333332  11.220703125 7.666015624999999  11.162109375 7.724609374999999  L 8.037109375 10.849609375000002  C 7.978515624999999 10.908203125000002  7.903645833333333 10.937500000000002  7.812500000000001 10.937500000000002  C 7.727864583333333 10.937500000000002  7.654622395833333 10.906575520833332  7.592773437500001 10.844726562499998  C 7.530924479166666 10.782877604166666  7.5 10.709635416666666  7.5 10.624999999999998  L 7.5 8.749999999999998  L 4.0625 8.749999999999998  C 3.977864583333334 8.749999999999998  3.904622395833334 8.719075520833332  3.8427734374999996 8.6572265625  C 3.780924479166666 8.595377604166668  3.75 8.522135416666668  3.75 8.4375  L 3.75 6.5625  C 3.75 6.477864583333332  3.780924479166666 6.404622395833332  3.8427734374999996 6.3427734375  C 3.904622395833334 6.280924479166668  3.977864583333334 6.249999999999999  4.0625 6.249999999999999  L 7.5 6.249999999999999  L 7.5 4.374999999999999  C 7.5 4.283854166666665  7.529296875 4.208984375000001  7.587890625 4.150390625000001  C 7.646484375000002 4.091796875000001  7.721354166666668 4.062500000000001  7.812500000000001 4.062500000000001  C 7.890624999999999 4.062500000000001  7.96875 4.095052083333333  8.046875 4.16015625  L 11.162109375 7.275390624999999  Z M 12.099609375 10.166015625  C 12.574869791666666 9.352213541666664  12.8125 8.463541666666668  12.8125 7.5  C 12.8125 6.536458333333332  12.574869791666666 5.647786458333333  12.099609375 4.833984375  C 11.624348958333336 4.020182291666665  10.979817708333336 3.375651041666665  10.166015625 2.900390625  C 9.352213541666666 2.425130208333333  8.463541666666668 2.1875000000000004  7.5 2.1875000000000004  C 6.536458333333333 2.1875000000000004  5.647786458333334 2.425130208333333  4.833984375 2.900390625  C 4.020182291666667 3.375651041666665  3.375651041666667 4.020182291666665  2.900390625 4.833984375  C 2.4251302083333335 5.647786458333333  2.1875 6.536458333333332  2.1875 7.5  C 2.1875 8.463541666666668  2.4251302083333335 9.352213541666664  2.900390625 10.166015625  C 3.375651041666667 10.979817708333332  4.020182291666667 11.624348958333334  4.833984375 12.099609375  C 5.647786458333334 12.574869791666666  6.536458333333333 12.8125  7.5 12.8125  C 8.463541666666668 12.8125  9.352213541666666 12.574869791666666  10.166015625 12.099609375  C 10.979817708333336 11.624348958333334  11.624348958333336 10.979817708333332  12.099609375 10.166015625  Z M 13.994140625 3.7353515625  C 14.664713541666664 4.884440104166665  15 6.139322916666664  15 7.5  C 15 8.860677083333334  14.664713541666664 10.115559895833332  13.994140625 11.2646484375  C 13.323567708333336 12.413736979166666  12.413736979166666 13.323567708333334  11.2646484375 13.994140625  C 10.115559895833336 14.664713541666668  8.860677083333334 15  7.5 15  C 6.139322916666667 15  4.884440104166667 14.664713541666668  3.7353515625 13.994140625  C 2.5862630208333335 13.323567708333334  1.676432291666667 12.413736979166666  1.005859375 11.2646484375  C 0.33528645833333326 10.115559895833332  0 8.860677083333334  0 7.5  C 0 6.139322916666664  0.33528645833333326 4.884440104166665  1.005859375 3.7353515625  C 1.676432291666667 2.586263020833333  2.5862630208333335 1.6764322916666652  3.7353515625 1.0058593749999996  C 4.884440104166667 0.33528645833333204  6.139322916666667 0  7.5 0  C 8.860677083333334 0  10.115559895833336 0.33528645833333204  11.2646484375 1.0058593749999996  C 12.413736979166666 1.6764322916666652  13.323567708333336 2.586263020833333  13.994140625 3.7353515625  Z " fill-rule="nonzero" fill="#474747" stroke="none" transform="matrix(1 0 0 1 1322 92 )" />
  </g>
</svg>