<?xml version="1.0" encoding="utf-8"?>
<svg version="1.1" xmlns:xlink="http://www.w3.org/1999/xlink" width="9px" height="5px" xmlns="http://www.w3.org/2000/svg">
  <g transform="matrix(1 0 0 1 -191 -96 )">
    <path d="M 8.8330078125 0.1649305555555558  C 8.9443359375 0.27488425925925875  9 0.40509259259259134  9 0.5555555555555558  C 9 0.706018518518518  8.9443359375 0.8362268518518512  8.8330078125 0.9461805555555558  L 4.8955078125 4.835069444444445  C 4.7841796875 4.945023148148149  4.65234375 5  4.5 5  C 4.347656250000001 5  4.215820312500001 4.945023148148149  4.1044921875 4.835069444444445  L 0.1669921875 0.9461805555555558  C 0.0556640625 0.8362268518518512  0 0.706018518518518  0 0.5555555555555558  C 0 0.40509259259259134  0.0556640625 0.27488425925925875  0.1669921875 0.1649305555555558  C 0.2783203125 0.054976851851851194  0.41015625000000006 0  0.5625 0  L 8.4375 0  C 8.58984375 0  8.7216796875 0.054976851851851194  8.8330078125 0.1649305555555558  Z " fill-rule="nonzero" fill="#000000" stroke="none" transform="matrix(1 0 0 1 191 96 )" />
  </g>
</svg>