<?xml version="1.0" encoding="utf-8"?>
<svg version="1.1" xmlns:xlink="http://www.w3.org/1999/xlink" width="14px" height="15px" xmlns="http://www.w3.org/2000/svg">
  <g transform="matrix(1 0 0 1 -317 -91 )">
    <path d="M 10.171875 13.166351606805293  L 9.56610576923077 9.187145557655956  L 12.140625 6.379962192816635  L 8.59014423076923 5.793950850661625  L 7 2.18336483931947  L 5.409855769230769 5.793950850661625  L 1.859375 6.379962192816635  L 4.433894230769231 9.187145557655956  L 3.8197115384615383 13.166351606805293  L 7 11.285444234404537  L 10.171875 13.166351606805293  Z M 13.528846153846153 5.378071833648393  C 13.842948717948719 5.434782608695653  14 5.579710144927536  14 5.812854442344046  C 14 5.951480781348455  13.927083333333334 6.102709514807812  13.78125 6.266540642722117  L 10.727163461538462 9.612476370510397  L 11.450721153846153 14.338374291115311  C 11.45633012820513 14.382482671707626  11.459134615384617 14.445494643982355  11.459134615384617 14.527410207939509  C 11.459134615384617 14.842470069313169  11.344150641025642 15  11.114182692307692 15  C 11.00761217948718 15  10.895432692307692 14.962192816635161  10.77764423076923 14.886578449905482  L 7 12.655954631379963  L 3.222355769230769 14.886578449905482  C 3.0989583333333335 14.962192816635161  2.986778846153846 15  2.8858173076923075 15  C 2.768028846153846 15  2.6796875 14.95431632010082  2.620793269230769 14.862948960302457  C 2.5618990384615383 14.771581600504096  2.532451923076923 14.659735349716446  2.532451923076923 14.527410207939509  C 2.532451923076923 14.48960302457467  2.538060897435898 14.426591052299937  2.549278846153846 14.338374291115311  L 3.2728365384615383 9.612476370510397  L 0.21033653846153846 6.266540642722117  C 0.07011217948717949 6.09640831758034  0 5.945179584120984  0 5.812854442344046  C 0 5.579710144927536  0.15705128205128202 5.434782608695653  0.47115384615384615 5.378071833648393  L 4.694711538461538 4.688090737240075  L 6.587740384615385 0.3875236294896023  C 6.694310897435898 0.1291745431632002  6.831730769230769 0  7 0  C 7.16826923076923 0  7.305689102564102 0.1291745431632002  7.412259615384616 0.3875236294896023  L 9.305288461538462 4.688090737240075  L 13.528846153846153 5.378071833648393  Z " fill-rule="nonzero" fill="#000000" stroke="none" transform="matrix(1 0 0 1 317 91 )" />
  </g>
</svg>