<?xml version="1.0" encoding="utf-8"?>
<svg version="1.1" xmlns:xlink="http://www.w3.org/1999/xlink" width="17px" height="15px" xmlns="http://www.w3.org/2000/svg">
  <g transform="matrix(1 0 0 1 -405 -91 )">
    <path d="M 16.819754464285715 4.978125  C 16.939918154761905 5.096874999999999  17 5.237499999999999  17 5.3999999999999995  C 17 5.562499999999998  16.939918154761905 5.703124999999999  16.819754464285715 5.821875  L 11.962611607142858 10.621875  C 11.842447916666668 10.740624999999998  11.70014880952381 10.799999999999999  11.535714285714286 10.799999999999999  C 11.371279761904763 10.799999999999999  11.228980654761905 10.740624999999998  11.108816964285714 10.621875  C 10.988653273809526 10.503125  10.928571428571429 10.362499999999999  10.928571428571429 10.2  L 10.928571428571429 7.800000000000001  L 8.803571428571429 7.800000000000001  C 8.183779761904763 7.800000000000001  7.6288132440476195 7.81875  7.138671875 7.856249999999999  C 6.648530505952381 7.89375  6.161551339285714 7.9609375  5.677734375 8.057812499999999  C 5.193917410714286 8.1546875  4.7733444940476195 8.2875  4.416015625 8.456249999999999  C 4.058686755952381 8.625  3.7250744047619047 8.8421875  3.4151785714285716 9.1078125  C 3.1052827380952386 9.373437499999998  2.852306547619048 9.6890625  2.65625 10.0546875  C 2.4601934523809526 10.4203125  2.306826636904762 10.853124999999999  2.1961495535714284 11.353124999999999  C 2.0854724702380953 11.853124999999999  2.030133928571429 12.418750000000001  2.030133928571429 13.05  C 2.030133928571429 13.39375  2.0459449404761907 13.778125000000001  2.0775669642857144 14.203125  C 2.0775669642857144 14.240625  2.0854724702380953 14.314062499999999  2.101283482142857 14.4234375  C 2.117094494047619 14.5328125  2.125 14.615625  2.125 14.671875  C 2.125 14.765625  2.098121279761905 14.843749999999998  2.0443638392857144 14.90625  C 1.9906063988095242 14.96875  1.9162946428571432 15  1.8214285714285714 15  C 1.7202380952380953 15  1.6316964285714286 14.946875  1.5558035714285714 14.840625  C 1.5115327380952381 14.784374999999999  1.4704241071428572 14.715625000000001  1.4324776785714286 14.634374999999999  C 1.39453125 14.553125  1.3518415178571428 14.459374999999998  1.3044084821428572 14.353125  C 1.2569754464285714 14.246875000000001  1.2237723214285714 14.171875  1.2047991071428572 14.128125  C 0.40159970238095233 12.346875  0 10.937499999999998  0 9.899999999999999  C 0 8.65625  0.16759672619047616 7.615624999999998  0.5027901785714286 6.778125  C 1.52734375 4.2593749999999995  4.294270833333333 2.999999999999999  8.803571428571429 2.999999999999999  L 10.928571428571429 2.999999999999999  L 10.928571428571429 0.6000000000000005  C 10.928571428571429 0.43749999999999845  10.988653273809526 0.2968749999999981  11.108816964285714 0.17812499999999953  C 11.228980654761905 0.05937499999999929  11.371279761904763 0  11.535714285714286 0  C 11.70014880952381 0  11.842447916666668 0.05937499999999929  11.962611607142858 0.17812499999999953  L 16.819754464285715 4.978125  Z " fill-rule="nonzero" fill="#000000" stroke="none" transform="matrix(1 0 0 1 405 91 )" />
  </g>
</svg>