<?xml version="1.0" encoding="utf-8"?>
<svg version="1.1" xmlns:xlink="http://www.w3.org/1999/xlink" width="15px" height="15px" xmlns="http://www.w3.org/2000/svg">
  <g transform="matrix(1 0 0 1 -380 -91 )">
    <path d="M 14.556361607142856 6.778125  C 14.852120535714288 7.615624999999998  15 8.65625  15 9.899999999999999  C 15 10.937499999999998  14.645647321428573 12.346875  13.936941964285715 14.128125  C 13.920200892857146 14.171875  13.890904017857146 14.246875000000001  13.849051339285715 14.353125  C 13.807198660714286 14.459374999999998  13.769531250000002 14.553125  13.736049107142856 14.634374999999999  C 13.702566964285715 14.715625000000001  13.666294642857144 14.784374999999999  13.627232142857144 14.840625  C 13.560267857142856 14.946875  13.482142857142858 15  13.392857142857144 15  C 13.309151785714285 15  13.243582589285715 14.96875  13.196149553571429 14.90625  C 13.148716517857144 14.843749999999998  13.125 14.765625  13.125 14.671875  C 13.125 14.615625  13.131975446428573 14.5328125  13.145926339285715 14.4234375  C 13.159877232142858 14.314062499999999  13.166852678571429 14.240625  13.166852678571429 14.203125  C 13.194754464285715 13.778125000000001  13.20870535714286 13.39375  13.208705357142856 13.05  C 13.20870535714286 12.418750000000001  13.15987723214286 11.853124999999999  13.062220982142856 11.353124999999999  C 12.96456473214286 10.853124999999999  12.829241071428573 10.4203125  12.65625 10.0546875  C 12.483258928571429 9.6890625  12.260044642857142 9.373437499999998  11.986607142857144 9.1078125  C 11.713169642857144 8.8421875  11.418805803571429 8.625  11.103515625 8.456249999999999  C 10.788225446428573 8.2875  10.417131696428571 8.1546875  9.990234375 8.057812499999999  C 9.563337053571429 7.9609375  9.133649553571429 7.89375  8.701171875 7.856249999999999  C 8.268694196428571 7.81875  7.779017857142857 7.800000000000001  7.232142857142858 7.800000000000001  L 5.357142857142858 7.800000000000001  L 5.357142857142858 10.2  C 5.357142857142858 10.362499999999999  5.304129464285714 10.503125  5.198102678571428 10.621875  C 5.092075892857143 10.740624999999998  4.966517857142858 10.799999999999999  4.821428571428572 10.799999999999999  C 4.6763392857142865 10.799999999999999  4.55078125 10.740624999999998  4.444754464285714 10.621875  L 0.15904017857142858 5.821875  C 0.053013392857142856 5.703124999999999  0 5.562499999999998  0 5.3999999999999995  C 0 5.237499999999999  0.053013392857142856 5.096874999999999  0.15904017857142858 4.978125  L 4.444754464285714 0.17812499999999953  C 4.55078125 0.05937499999999929  4.6763392857142865 0  4.821428571428572 0  C 4.966517857142858 0  5.092075892857143 0.05937499999999929  5.198102678571428 0.17812499999999953  C 5.304129464285714 0.2968749999999981  5.357142857142858 0.43749999999999845  5.357142857142858 0.6000000000000005  L 5.357142857142858 2.999999999999999  L 7.232142857142858 2.999999999999999  C 11.2109375 2.999999999999999  13.65234375 4.2593749999999995  14.556361607142856 6.778125  Z " fill-rule="nonzero" fill="#000000" stroke="none" transform="matrix(1 0 0 1 380 91 )" />
  </g>
</svg>