<?xml version="1.0" encoding="utf-8"?>
<svg version="1.1" xmlns:xlink="http://www.w3.org/1999/xlink" width="14px" height="15px" xmlns="http://www.w3.org/2000/svg">
  <g transform="matrix(1 0 0 1 -731 -677 )">
    <path d="M 5.3991477272727275 12.9541015625  C 5.42566287878788 13.2568359375  5.465435606060606 13.473307291666668  5.518465909090909 13.603515625  C 6.008996212121213 13.811848958333332  6.473011363636363 13.916015625  6.910511363636363 13.916015625  C 9.402935606060607 13.916015625  10.649147727272727 12.825520833333334  10.649147727272727 10.644531250000002  C 10.649147727272727 9.90234375  10.513257575757578 9.31640625  10.241477272727273 8.886718750000002  C 10.0625 8.600260416666666  9.858664772727273 8.359375000000002  9.629971590909092 8.164062499999998  C 9.401278409090908 7.96875  9.177556818181818 7.817382812500001  8.958806818181818 7.709960937499999  C 8.740056818181818 7.6025390625  8.473248106060607 7.521158854166665  8.158380681818182 7.465820312499999  C 7.843513257575758 7.410481770833332  7.565104166666667 7.376302083333333  7.323153409090909 7.363281249999999  C 7.081202651515152 7.350260416666666  6.767992424242425 7.343750000000001  6.3835227272727275 7.343750000000001  C 5.899621212121213 7.343750000000001  5.564867424242425 7.376302083333333  5.379261363636363 7.44140625  C 5.379261363636363 7.786458333333331  5.377604166666667 8.304036458333334  5.3742897727272725 8.994140625  C 5.37097537878788 9.684244791666666  5.369318181818182 10.198567708333332  5.369318181818182 10.537109374999998  C 5.369318181818182 10.589192708333334  5.366003787878789 10.808919270833334  5.359375 11.196289062499998  C 5.352746212121213 11.583658854166668  5.351089015151516 11.897786458333332  5.354403409090909 12.138671875  C 5.357717803030304 12.379557291666668  5.372632575757576 12.6513671875  5.3991477272727275 12.9541015625  Z M 5.369318181818182 5.644531250000001  C 5.369318181818182 5.944010416666666  5.372632575757576 6.168619791666666  5.379261363636363 6.318359375000001  C 5.657670454545454 6.363932291666667  6.0189393939393945 6.38671875  6.463068181818182 6.38671875  C 7.006628787878788 6.38671875  7.480587121212121 6.344401041666666  7.884943181818182 6.259765625000001  C 8.289299242424244 6.175130208333333  8.653882575757576 6.030273437499999  8.978693181818182 5.825195312499999  C 9.303503787878789 5.620117187499999  9.550426136363637 5.328776041666666  9.719460227272727 4.951171875  C 9.888494318181818 4.573567708333332  9.973011363636363 4.111328124999999  9.973011363636363 3.5644531250000004  C 9.973011363636363 3.1087239583333326  9.876893939393941 2.7099609375  9.684659090909092 2.3681640624999996  C 9.492424242424244 2.0263671875000004  9.230587121212123 1.7594401041666647  8.899147727272727 1.5673828125  C 8.567708333333334 1.3753255208333321  8.209753787878789 1.2337239583333326  7.825284090909091 1.142578125  C 7.4408143939393945 1.0514322916666656  7.029829545454545 1.0058593749999996  6.592329545454546 1.0058593749999996  C 6.260890151515152 1.0058593749999996  5.8300189393939394 1.048177083333333  5.299715909090909 1.1328125000000004  C 5.299715909090909 1.458333333333333  5.312973484848485 1.9498697916666647  5.339488636363637 2.607421875  C 5.366003787878789 3.264973958333332  5.379261363636363 3.7597656249999996  5.379261363636363 4.091796875000001  C 5.379261363636363 4.267578125000001  5.377604166666667 4.527994791666664  5.3742897727272725 4.873046874999999  C 5.37097537878788 5.218098958333332  5.369318181818182 5.475260416666666  5.369318181818182 5.644531250000001  Z M 2.296875 14.8828125  C 0.9644886363636364 14.954427083333332  0.1988636363636364 14.993489583333334  0 15  L 0.019886363636363636 14.08203125  C 0.11931818181818181 14.055989583333334  0.4010416666666667 14.00390625  0.8650568181818182 13.92578125  C 1.32907196969697 13.84765625  1.6803977272727273 13.759765625  1.919034090909091 13.662109375  C 1.9654356060606064 13.583984375  2.0068655303030303 13.49609375  2.0433238636363638 13.3984375  C 2.0797821969696972 13.30078125  2.1079545454545454 13.191731770833334  2.127840909090909 13.0712890625  C 2.147727272727273 12.950846354166668  2.1659564393939394 12.845052083333332  2.182528409090909 12.75390625  C 2.199100378787879 12.662760416666666  2.209043560606061 12.540690104166668  2.2123579545454546 12.3876953125  C 2.2156723484848486 12.234700520833332  2.2173295454545454 12.1240234375  2.2173295454545454 12.0556640625  L 2.2173295454545454 11.708984375  L 2.2173295454545454 11.416015625  C 2.2173295454545454 5.022786458333332  2.144412878787879 1.6861979166666647  1.9985795454545454 1.40625  C 1.972064393939394 1.3541666666666652  1.8991477272727273 1.3069661458333326  1.7798295454545454 1.2646484375000004  C 1.6605113636363635 1.2223307291666652  1.5130208333333335 1.1865234375  1.3373579545454546 1.1572265625  C 1.161695075757576 1.1279296875  0.9976325757575759 1.1051432291666652  0.8451704545454546 1.0888671875000004  C 0.6927083333333334 1.0725911458333326  0.5319602272727273 1.0579427083333326  0.36292613636363635 1.0449218750000004  C 0.19389204545454544 1.0319010416666652  0.0928030303030303 1.0221354166666656  0.059659090909090905 1.0156250000000004  L 0.019886363636363636 0.205078125  C 0.6695075757575758 0.19205729166666463  1.7964015151515154 0.15462239583333315  3.4005681818181817 0.09277343750000056  C 5.004734848484849 0.03092447916666463  6.241003787878789 0  7.109375 0  C 7.261837121212121 0  7.487215909090909 0.0016276041666646313  7.785511363636364 0.004882812500000555  C 8.08380681818182 0.008138020833333148  8.309185606060607 0.009765624999999445  8.461647727272727 0.009765624999999445  C 8.925662878787879 0.009765624999999445  9.378077651515152 0.05208333333333315  9.818892045454545 0.13671875000000056  C 10.259706439393941 0.22135416666666463  10.68560606060606 0.3580729166666652  11.096590909090908 0.5468750000000006  C 11.50757575757576 0.7356770833333326  11.865530303030305 0.966796875  12.170454545454545 1.2402343749999996  C 12.475378787878789 1.5136718750000004  12.720643939393941 1.853841145833333  12.90625 2.2607421875000004  C 13.09185606060606 2.6676432291666647  13.184659090909092 3.1152343749999996  13.184659090909092 3.603515625  C 13.184659090909092 3.9420572916666647  13.129971590909092 4.252929687500001  13.020596590909092 4.536132812499999  C 12.911221590909092 4.8193359375  12.781960227272727 5.053710937499998  12.6328125 5.239257812499999  C 12.483664772727273 5.424804687499999  12.269886363636363 5.611979166666664  11.991477272727273 5.80078125  C 11.713068181818182 5.989583333333332  11.471117424242426 6.136067708333332  11.265625 6.240234375  C 11.060132575757578 6.344401041666666  10.781723484848486 6.474609375  10.430397727272727 6.630859374999999  C 11.45123106060606 6.858723958333332  12.301373106060607 7.294921875  12.980823863636363 7.939453125  C 13.660274621212123 8.583984375  14 9.391276041666666  14 10.361328124999998  C 14 11.012369791666664  13.883996212121213 11.5966796875  13.651988636363637 12.1142578125  C 13.41998106060606 12.6318359375  13.110085227272727 13.056640625  12.722301136363637 13.388671875  C 12.334517045454545 13.720703125  11.877130681818182 13.9990234375  11.350142045454545 14.2236328125  C 10.823153409090908 14.4482421875  10.28125 14.606119791666668  9.724431818181818 14.697265625  C 9.167613636363637 14.788411458333334  8.584280303030305 14.833984375  7.974431818181818 14.833984375  C 7.682765151515152 14.833984375  7.245265151515152 14.82421875  6.661931818181818 14.8046875  C 6.078598484848485 14.78515625  5.641098484848485 14.775390625  5.349431818181818 14.775390625  C 4.646780303030304 14.775390625  3.629261363636364 14.811197916666668  2.296875 14.8828125  Z " fill-rule="nonzero" fill="#000000" stroke="none" transform="matrix(1 0 0 1 731 677 )" />
  </g>
</svg>