<?xml version="1.0" encoding="utf-8"?>
<svg version="1.1" xmlns:xlink="http://www.w3.org/1999/xlink" width="19px" height="15px" xmlns="http://www.w3.org/2000/svg">
  <g transform="matrix(1 0 0 1 -868 -677 )">
    <path d="M 18.798549107142858 12.475142045454545  C 18.932849702380953 12.610085227272728  19 12.769886363636363  19 12.954545454545455  L 19 14.318181818181818  C 19 14.502840909090908  18.932849702380953 14.662642045454545  18.798549107142858 14.797585227272727  C 18.664248511904763 14.93252840909091  18.505208333333336 15  18.321428571428573 15  L 0.6785714285714285 15  C 0.4947916666666667 15  0.3357514880952381 14.93252840909091  0.20145089285714288 14.797585227272727  C 0.06715029761904762 14.662642045454545  0 14.502840909090908  0 14.318181818181818  L 0 12.954545454545455  C 0 12.769886363636363  0.06715029761904762 12.610085227272728  0.20145089285714288 12.475142045454545  C 0.3357514880952381 12.340198863636363  0.4947916666666667 12.272727272727272  0.6785714285714285 12  L 18.321428571428573 12  C 18.505208333333336 12.272727272727272  18.664248511904763 12.340198863636363  18.798549107142858 12.475142045454545  Z M 14.727120535714285 8.384232954545455  C 14.861421130952381 8.519176136363635  14.928571428571429 8.678977272727273  14.928571428571429 8.863636363636363  L 14.928571428571429 10.227272727272728  C 14.928571428571429 10.411931818181818  14.861421130952381 10.571732954545453  14.727120535714285 10.706676136363637  C 14.592819940476193 10.84161931818182  14.433779761904765 10.90909090909091  14.25 11  L 0.6785714285714285 11  C 0.4947916666666667 10.90909090909091  0.3357514880952381 10.84161931818182  0.20145089285714288 10.706676136363637  C 0.06715029761904762 10.571732954545453  0 10.411931818181818  0 10.227272727272728  L 0 8.863636363636363  C 0 8.678977272727273  0.06715029761904762 8.519176136363635  0.20145089285714288 8.384232954545455  C 0.3357514880952381 8.24928977272727  0.4947916666666667 8.181818181818182  0.6785714285714285 8  L 14.25 8  C 14.433779761904765 8.181818181818182  14.592819940476193 8.24928977272727  14.727120535714285 8.384232954545455  Z M 17.44140625 4.293323863636364  C 17.575706845238095 4.428267045454545  17.642857142857142 4.588068181818181  17.642857142857142 4.772727272727273  L 17.642857142857142 6.136363636363636  C 17.642857142857142 6.321022727272727  17.575706845238095 6.480823863636363  17.44140625 6.615767045454545  C 17.307105654761905 6.7507102272727275  17.148065476190478 6.818181818181818  16.964285714285715 7  L 0.6785714285714285 7  C 0.4947916666666667 6.818181818181818  0.3357514880952381 6.7507102272727275  0.20145089285714288 6.615767045454545  C 0.06715029761904762 6.480823863636363  0 6.321022727272727  0 6.136363636363636  L 0 4.772727272727273  C 0 4.588068181818181  0.06715029761904762 4.428267045454545  0.20145089285714288 4.293323863636364  C 0.3357514880952381 4.158380681818182  0.4947916666666667 4.090909090909091  0.6785714285714285 4  L 16.964285714285715 4  C 17.148065476190478 4.090909090909091  17.307105654761905 4.158380681818182  17.44140625 4.293323863636364  Z M 13.369977678571429 0.20241477272727348  C 13.504278273809526 0.3373579545454525  13.571428571428571 0.49715909090909005  13.571428571428571 0.6818181818181812  L 13.571428571428571 2.0454545454545454  C 13.571428571428571 2.230113636363635  13.504278273809526 2.3899147727272725  13.369977678571429 2.5248579545454546  C 13.235677083333334 2.6598011363636354  13.076636904761905 2.7272727272727266  12.892857142857144 3  L 0.6785714285714285 3  C 0.4947916666666667 2.7272727272727266  0.3357514880952381 2.6598011363636354  0.20145089285714288 2.5248579545454546  C 0.06715029761904762 2.3899147727272725  0 2.230113636363635  0 2.0454545454545454  L 0 0.6818181818181812  C 0 0.49715909090909005  0.06715029761904762 0.3373579545454525  0.20145089285714288 0.20241477272727348  C 0.3357514880952381 0.0674715909090895  0.4947916666666667 0  0.6785714285714285 0  L 12.892857142857144 0  C 13.076636904761905 0  13.235677083333334 0.0674715909090895  13.369977678571429 0.20241477272727348  Z " fill-rule="nonzero" fill="#000000" stroke="none" transform="matrix(1 0 0 1 868 677 )" />
  </g>
</svg>