<?xml version="1.0" encoding="utf-8"?>
<svg version="1.1" xmlns:xlink="http://www.w3.org/1999/xlink" width="15px" height="15px" xmlns="http://www.w3.org/2000/svg">
  <g transform="matrix(1 0 0 1 -1087 -677 )">
    <path d="M 2.836240855374226 12.812675266404936  C 3.0050647158131683 13.020190689848569  3.0894766460326393 13.266965787997757  3.0894766460326393 13.553000560852496  C 3.0894766460326393 14.001682557487381  2.936128306133934 14.355019629837352  2.629431626336522 14.613011777902411  C 2.322734946539111 14.871003925967472  1.9414743950478333 15  1.4856499718626899 15  C 0.8891389983117615 15  0.40517726505346097 14.814918676388109  0.03376477208778847 14.444756029164331  L 0.5149127743387734 13.70443073471677  C 0.790658413055712 13.956814357823891  1.0889138998311763 14.083006169377454  1.409679234665166 14.083006169377454  C 1.5728756330894766 14.083006169377454  1.7149690489589196 14.042344363432418  1.8359594822734948 13.961020751542344  C 1.9569499155880699 13.87969713965227  2.0174451322453577 13.76051598429613  2.0174451322453577 13.60347728547392  C 2.0174451322453577 13.244531688166012  1.722003376477209 13.087492989343804  1.1311198649409115 13.132361189007291  L 0.911648846370287 12.661245092540662  C 0.9566685424873382 12.605159842961301  1.0481148002250988 12.483174425126192  1.185987619583568 12.295288839035335  C 1.3238604389420372 12.107403252944476  1.4434440067529544 11.955973079080202  1.5447383230163196 11.840998317442514  C 1.6460326392796851 11.726023555804822  1.7501406865503661 11.618059450364553  1.8570624648283625 11.517106001121704  L 1.8570624648283625 11.5086932136848  C 1.7670230725942604 11.5086932136848  1.6305571187394488 11.511497476163768  1.4476646032639278 11.517106001121704  C 1.2647720877884074 11.522714526079643  1.1283061339335962 11.525518788558609  1.0382667416994935 11.525518788558609  L 1.0382667416994935 11.971396522714526  L 0.1435002813731008 11.971396522714526  L 0.1435002813731008 10.692652832305104  L 2.9544175576814857 10.692652832305104  L 2.9544175576814857 11.432978126752664  L 2.152504220596511 12.400448681996634  C 2.439504783342713 12.467750981491868  2.6674169949352846 12.605159842961301  2.836240855374226 12.812675266404936  Z M 2.220033764772088 8.27818283791363  L 3.1063590320765333 8.27818283791363  L 3.1063590320765333 9.615816040381379  L 0.05064715813168267 9.615816040381379  C 0.016882386043894262 9.413909141895683  0 9.262478968031408  0 9.16152551878856  C 0 8.875490745933819  0.06612267867191905 8.614694335389792  0.19836803601575698 8.379136287156477  C 0.33061339335959494 8.143578238923162  0.489589195272932 7.952888390353335  0.6752954417557681 7.807066741446999  C 0.8610016882386045 7.661245092540661  1.0467079347214407 7.52804262478968  1.2324141812042768 7.407459338194054  C 1.418120427687113 7.286876051598429  1.5770962296004503 7.16489063376332  1.709341586944288 7.041503084688727  C 1.8415869442881263 6.918115535614133  1.907709622960045 6.791923724060572  1.907709622960045 6.662927650028042  C 1.907709622960045 6.52271452607964  1.8669105233539676 6.414750420639371  1.785312324141812 6.339035333707235  C 1.7037141249296568 6.263320246775098  1.5925717501406866 6.22546270330903  1.4518851997749016 6.22546270330903  C 1.193021947101857 6.22546270330903  0.9651097355092854 6.388109927089175  0.7681485649971863 6.713404374649467  L 0.05064715813168267 6.217049915872125  C 0.1857062464828363 5.931015143017387  0.38688801350590896 5.708076275939427  0.6541924592009004 5.548233314638249  C 0.9214969048958921 5.388390353337072  1.2183455261676985 5.3084688726864835  1.5447383230163196 5.3084688726864835  C 1.9555430500844122 5.3084688726864835  2.301631963984243 5.424845765563656  2.583005064715813 5.657599551318004  C 2.8643781654473837 5.890353337072348  3.0050647158131683 6.2058328659562525  3.0050647158131683 6.604038137969715  C 3.0050647158131683 6.884464385866517  2.9093978615644347 7.141054402692091  2.7180641530669667 7.373808188446438  C 2.5267304445694996 7.606561974200784  2.315700619020822 7.787436904094223  2.084974676420934 7.916432978126753  C 1.854248733821047 8.045429052159282  1.6418120427687115 8.187044307347167  1.4476646032639278 8.34127874369041  C 1.2535171637591445 8.495513180033651  1.1536297129994373 8.642736960179473  1.1480022509848058 8.782950084127874  L 2.220033764772088 8.782950084127874  L 2.220033764772088 8.27818283791363  Z M 14.919808666291502 10.772574312955692  C 14.973269555430504 10.825855300056086  15 10.888951205832866  15 10.961862030286035  L 15 12.57711721817162  C 15 12.650028042624792  14.973269555430504 12.713123948401572  14.919808666291502 12.766404935501964  C 14.866347777152505 12.819685922602353  14.803038829487903 12.846326416152552  14.729881823297692 12.846326416152552  L 4.465391108610017 12.846326416152552  C 4.392234102419809 12.846326416152552  4.328925154755206 12.819685922602353  4.275464265616207 12.766404935501964  C 4.222003376477209 12.713123948401572  4.195272931907709 12.650028042624792  4.195272931907709 12.57711721817162  L 4.195272931907709 10.961862030286035  C 4.195272931907709 10.88334268087493  4.220596510973551 10.818844643858666  4.271243669105234 10.768367919237239  C 4.321890827236916 10.717891194615817  4.386606640405178 10.692652832305104  4.465391108610017 10.692652832305104  L 14.729881823297692 10.692652832305104  C 14.803038829487903 10.692652832305104  14.866347777152505 10.7192933258553  14.919808666291502 10.772574312955692  Z M 2.2031513787281933 3.3987661245092546  L 3.1148002250984805 3.3987661245092546  L 3.1148002250984805 4.2316320807627585  L 0.28700056274620156 4.2316320807627585  L 0.28700056274620156 3.3987661245092546  L 1.1902082160945413 3.3987661245092546  C 1.1902082160945413 3.168816601233874  1.1916150815981994 2.828098710039259  1.194428812605515 2.376612450925406  C 1.1972425436128307 1.925126191811553  1.1986494091164883 1.584408300616937  1.1986494091164883 1.3544587773415588  L 1.1986494091164883 1.2535053280987107  L 1.1817670230725943 1.2535053280987107  C 1.1367473269555433 1.3488502523836225  0.996060776589758 1.5002804262478957  0.7597073719752392 1.7077958496915318  L 0.160382667416995 1.0684240044868198  L 1.3083849184018008 0  L 2.2031513787281933 0  L 2.2031513787281933 3.3987661245092546  Z M 14.919808666291502 6.465227145260796  C 14.973269555430504 6.5185081323611875  15 6.58160403813797  15 6.65451486259114  L 15 8.269770050476726  C 15 8.342680874929894  14.973269555430504 8.405776780706674  14.919808666291502 8.459057767807066  C 14.866347777152505 8.512338754907459  14.803038829487903 8.538979248457656  14.729881823297692 8.538979248457656  L 4.465391108610017 8.538979248457656  C 4.392234102419809 8.538979248457656  4.328925154755206 8.512338754907459  4.275464265616207 8.459057767807066  C 4.222003376477209 8.405776780706674  4.195272931907709 8.342680874929894  4.195272931907709 8.269770050476726  L 4.195272931907709 6.65451486259114  C 4.195272931907709 6.5759955131800325  4.220596510973551 6.511497476163769  4.271243669105234 6.461020751542344  C 4.321890827236916 6.410544026920919  4.386606640405178 6.3853056646102075  4.465391108610017 6.3853056646102075  L 14.729881823297692 6.3853056646102075  C 14.803038829487903 6.3853056646102075  14.866347777152505 6.411946158160405  14.919808666291502 6.465227145260796  Z M 14.919808666291502 2.1578799775659006  C 14.973269555430504 2.211160964666292  15 2.274256870443072  15 2.347167694896242  L 15 3.9624228827818286  C 15 4.0353337072349955  14.973269555430504 4.098429613011777  14.919808666291502 4.15171060011217  C 14.866347777152505 4.204991587212563  14.803038829487903 4.2316320807627585  14.729881823297692 4.2316320807627585  L 4.465391108610017 4.2316320807627585  C 4.392234102419809 4.2316320807627585  4.328925154755206 4.204991587212563  4.275464265616207 4.15171060011217  C 4.222003376477209 4.098429613011777  4.195272931907709 4.0353337072349955  4.195272931907709 3.9624228827818286  L 4.195272931907709 2.347167694896242  C 4.195272931907709 2.274256870443072  4.222003376477209 2.211160964666292  4.275464265616207 2.1578799775659006  C 4.328925154755206 2.1045989904655062  4.392234102419809 2.077958496915312  4.465391108610017 2  L 14.729881823297692 2  C 14.803038829487903 2.077958496915312  14.866347777152505 2.1045989904655062  14.919808666291502 2.1578799775659006  Z " fill-rule="nonzero" fill="#000000" stroke="none" transform="matrix(1 0 0 1 1087 677 )" />
  </g>
</svg>