<?xml version="1.0" encoding="utf-8"?>
<svg version="1.1" xmlns:xlink="http://www.w3.org/1999/xlink" width="19px" height="15px" xmlns="http://www.w3.org/2000/svg">
  <g transform="matrix(1 0 0 1 -978 -677 )">
    <path d="M 18.798549107142858 12.475142045454545  C 18.932849702380953 12.610085227272728  19 12.769886363636363  19 12.954545454545455  L 19 14.318181818181818  C 19 14.502840909090908  18.932849702380953 14.662642045454545  18.798549107142858 14.797585227272727  C 18.664248511904763 14.93252840909091  18.505208333333336 15  18.321428571428573 15  L 0.6785714285714285 15  C 0.4947916666666667 15  0.3357514880952381 14.93252840909091  0.20145089285714288 14.797585227272727  C 0.06715029761904762 14.662642045454545  0 14.502840909090908  0 14.318181818181818  L 0 12.954545454545455  C 0 12.769886363636363  0.06715029761904762 12.610085227272728  0.20145089285714288 12.475142045454545  C 0.3357514880952381 12.340198863636363  0.4947916666666667 12.272727272727272  0.6785714285714285 12  L 18.321428571428573 12  C 18.505208333333336 12.272727272727272  18.664248511904763 12.340198863636363  18.798549107142858 12.475142045454545  Z M 18.798549107142858 8.384232954545455  C 18.932849702380953 8.519176136363635  19 8.678977272727273  19 8.863636363636363  L 19 10.227272727272728  C 19 10.411931818181818  18.932849702380953 10.571732954545453  18.798549107142858 10.706676136363637  C 18.664248511904763 10.84161931818182  18.505208333333336 10.90909090909091  18.321428571428573 11  L 4.75 11  C 4.566220238095238 10.90909090909091  4.40718005952381 10.84161931818182  4.272879464285714 10.706676136363637  C 4.138578869047619 10.571732954545453  4.071428571428571 10.411931818181818  4.071428571428571 10.227272727272728  L 4.071428571428571 8.863636363636363  C 4.071428571428571 8.678977272727273  4.138578869047619 8.519176136363635  4.272879464285714 8.384232954545455  C 4.40718005952381 8.24928977272727  4.566220238095238 8.181818181818182  4.75 8  L 18.321428571428573 8  C 18.505208333333336 8.181818181818182  18.664248511904763 8.24928977272727  18.798549107142858 8.384232954545455  Z M 18.798549107142858 4.293323863636364  C 18.932849702380953 4.428267045454545  19 4.588068181818181  19 4.772727272727273  L 19 6.136363636363636  C 19 6.321022727272727  18.932849702380953 6.480823863636363  18.798549107142858 6.615767045454545  C 18.664248511904763 6.7507102272727275  18.505208333333336 6.818181818181818  18.321428571428573 7  L 2.0357142857142856 7  C 1.8519345238095242 6.818181818181818  1.6928943452380956 6.7507102272727275  1.55859375 6.615767045454545  C 1.4242931547619049 6.480823863636363  1.357142857142857 6.321022727272727  1.357142857142857 6.136363636363636  L 1.357142857142857 4.772727272727273  C 1.357142857142857 4.588068181818181  1.4242931547619049 4.428267045454545  1.55859375 4.293323863636364  C 1.6928943452380956 4.158380681818182  1.8519345238095242 4.090909090909091  2.0357142857142856 4  L 18.321428571428573 4  C 18.505208333333336 4.090909090909091  18.664248511904763 4.158380681818182  18.798549107142858 4.293323863636364  Z M 18.798549107142858 0.20241477272727348  C 18.932849702380953 0.3373579545454525  19 0.49715909090909005  19 0.6818181818181812  L 19 2.0454545454545454  C 19 2.230113636363635  18.932849702380953 2.3899147727272725  18.798549107142858 2.5248579545454546  C 18.664248511904763 2.6598011363636354  18.505208333333336 2.7272727272727266  18.321428571428573 3  L 6.107142857142858 3  C 5.923363095238097 2.7272727272727266  5.764322916666667 2.6598011363636354  5.630022321428572 2.5248579545454546  C 5.495721726190476 2.3899147727272725  5.428571428571428 2.230113636363635  5.428571428571428 2.0454545454545454  L 5.428571428571428 0.6818181818181812  C 5.428571428571428 0.49715909090909005  5.495721726190476 0.3373579545454525  5.630022321428572 0.20241477272727348  C 5.764322916666667 0.0674715909090895  5.923363095238097 0  6.107142857142858 0  L 18.321428571428573 0  C 18.505208333333336 0  18.664248511904763 0.0674715909090895  18.798549107142858 0.20241477272727348  Z " fill-rule="nonzero" fill="#000000" stroke="none" transform="matrix(1 0 0 1 978 677 )" />
  </g>
</svg>