<?xml version="1.0" encoding="utf-8"?>
<svg version="1.1" xmlns:xlink="http://www.w3.org/1999/xlink" width="19px" height="15px" xmlns="http://www.w3.org/2000/svg">
  <g transform="matrix(1 0 0 1 -1037 -677 )">
    <path d="M 3.477678571428571 11.505681818181818  C 3.8735119047619047 11.90340909090909  4.071428571428571 12.386363636363637  4.071428571428571 12.954545454545455  C 4.071428571428571 13.522727272727272  3.8735119047619047 14.00568181818182  3.477678571428571 14.40340909090909  C 3.081845238095238 14.801136363636363  2.6011904761904763 15  2.0357142857142856 15  C 1.4702380952380956 15  0.9895833333333334 14.801136363636363  0.59375 14.40340909090909  C 0.19791666666666666 14.00568181818182  0 13.522727272727272  0 12.954545454545455  C 0 12.386363636363637  0.19791666666666666 11.90340909090909  0.59375 11.505681818181818  C 0.9895833333333334 11.107954545454545  1.4702380952380956 10.90909090909091  2.0357142857142856 10.90909090909091  C 2.6011904761904763 10.90909090909091  3.081845238095238 11.107954545454545  3.477678571428571 11.505681818181818  Z M 3.477678571428571 6.051136363636364  C 3.8735119047619047 6.448863636363635  4.071428571428571 6.931818181818181  4.071428571428571 7.5  C 4.071428571428571 8.068181818181818  3.8735119047619047 8.551136363636363  3.477678571428571 8.948863636363637  C 3.081845238095238 9.346590909090908  2.6011904761904763 9.545454545454545  2.0357142857142856 9.545454545454545  C 1.4702380952380956 9.545454545454545  0.9895833333333334 9.346590909090908  0.59375 8.948863636363637  C 0.19791666666666666 8.551136363636363  0 8.068181818181818  0 7.5  C 0 6.931818181818181  0.19791666666666666 6.448863636363635  0.59375 6.051136363636364  C 0.9895833333333334 5.65340909090909  1.4702380952380956 5.454545454545455  2.0357142857142856 5.454545454545455  C 2.6011904761904763 5.454545454545455  3.081845238095238 5.65340909090909  3.477678571428571 6.051136363636364  Z M 18.899274553571427 11.692116477272728  C 18.966424851190478 11.759588068181818  19 11.839488636363637  19 11.931818181818182  L 19 13.977272727272728  C 19 14.069602272727273  18.966424851190478 14.149502840909092  18.899274553571427 14.216974431818182  C 18.832124255952383 14.284446022727272  18.75260416666667 14.318181818181818  18.660714285714285 14.318181818181818  L 5.767857142857142 14.318181818181818  C 5.675967261904763 14.318181818181818  5.596447172619048 14.284446022727272  5.529296875 14.216974431818182  C 5.4621465773809526 14.149502840909092  5.428571428571428 14.069602272727273  5.428571428571428 13.977272727272728  L 5.428571428571428 11.931818181818182  C 5.428571428571428 11.839488636363637  5.4621465773809526 11.759588068181818  5.529296875 11.692116477272728  C 5.596447172619048 11.624644886363637  5.675967261904763 11.59090909090909  5.767857142857142 11.59090909090909  L 18.660714285714285 11.59090909090909  C 18.75260416666667 11.59090909090909  18.832124255952383 11.624644886363637  18.899274553571427 11.692116477272728  Z M 3.477678571428571 0.5965909090909094  C 3.8735119047619047 0.9943181818181818  4.071428571428571 1.477272727272726  4.071428571428571 2.0454545454545454  C 4.071428571428571 2.613636363636363  3.8735119047619047 3.0965909090909074  3.477678571428571 3.494318181818181  C 3.081845238095238 3.8920454545454537  2.6011904761904763 4.090909090909091  2.0357142857142856 4.090909090909091  C 1.4702380952380956 4.090909090909091  0.9895833333333334 3.8920454545454537  0.59375 3.494318181818181  C 0.19791666666666666 3.0965909090909074  0 2.613636363636363  0 2.0454545454545454  C 0 1.477272727272726  0.19791666666666666 0.9943181818181818  0.59375 0.5965909090909094  C 0.9895833333333334 0.19886363636363535  1.4702380952380956 0  2.0357142857142856 0  C 2.6011904761904763 0  3.081845238095238 0.19886363636363535  3.477678571428571 0.5965909090909094  Z M 18.899274553571427 6.237571022727273  C 18.966424851190478 6.305042613636363  19 6.384943181818182  19 6.477272727272727  L 19 8.522727272727272  C 19 8.615056818181817  18.966424851190478 8.694957386363635  18.899274553571427 8.762428977272728  C 18.832124255952383 8.829900568181818  18.75260416666667 8.863636363636363  18.660714285714285 8.863636363636363  L 5.767857142857142 8.863636363636363  C 5.675967261904763 8.863636363636363  5.596447172619048 8.829900568181818  5.529296875 8.762428977272728  C 5.4621465773809526 8.694957386363635  5.428571428571428 8.615056818181817  5.428571428571428 8.522727272727272  L 5.428571428571428 6.477272727272727  C 5.428571428571428 6.384943181818182  5.4621465773809526 6.305042613636363  5.529296875 6.237571022727273  C 5.596447172619048 6.1700994318181825  5.675967261904763 6.136363636363636  5.767857142857142 6.136363636363636  L 18.660714285714285 6.136363636363636  C 18.75260416666667 6.136363636363636  18.832124255952383 6.1700994318181825  18.899274553571427 6.237571022727273  Z M 18.899274553571427 0.7830255681818188  C 18.966424851190478 0.8504971590909083  19 0.9303977272727271  19 1.0227272727272734  L 19 3.068181818181819  C 19 3.160511363636362  18.966424851190478 3.2404119318181808  18.899274553571427 3.3078835227272734  C 18.832124255952383 3.375355113636363  18.75260416666667 3.409090909090909  18.660714285714285 3.409090909090909  L 5.767857142857142 3.409090909090909  C 5.675967261904763 3.409090909090909  5.596447172619048 3.375355113636363  5.529296875 3.3078835227272734  C 5.4621465773809526 3.2404119318181808  5.428571428571428 3.160511363636362  5.428571428571428 3.068181818181819  L 5.428571428571428 1.0227272727272734  C 5.428571428571428 0.9303977272727271  5.4621465773809526 0.8504971590909083  5.529296875 0.7830255681818188  C 5.596447172619048 0.715553977272726  5.675967261904763 0.6818181818181812  5.767857142857142 0.6818181818181812  L 18.660714285714285 0.6818181818181812  C 18.75260416666667 0.6818181818181812  18.832124255952383 0.715553977272726  18.899274553571427 0.7830255681818188  Z " fill-rule="nonzero" fill="#000000" stroke="none" transform="matrix(1 0 0 1 1037 677 )" />
  </g>
</svg>