<?xml version="1.0" encoding="utf-8"?>
<svg version="1.1" xmlns:xlink="http://www.w3.org/1999/xlink" width="15px" height="15px" xmlns="http://www.w3.org/2000/svg">
  <g transform="matrix(1 0 0 1 -818 -677 )">
    <path d="M 1.904296875 1.3085937500000004  C 1.7415364583333335 1.0742187500000004  1.2630208333333335 0.9472656249999994  0.46875 0.9277343750000006  C 0.22786458333333337 0.9147135416666652  0.08138020833333334 0.9016927083333331  0.029296875 0.8886718749999994  L 0 0.029296875  C 0.08463541666666669 0.02278645833333315  0.21484375 0.019531250000000555  0.390625 0.019531250000000555  C 0.78125 0.019531250000000555  1.1458333333333335 0.03255208333333259  1.484375 0.05859375  C 2.34375 0.10416666666666463  2.884114583333334 0.12695312499999944  3.10546875 0.12695312499999944  C 3.665364583333334 0.12695312499999944  4.212239583333334 0.1171875  4.74609375 0.09765624999999944  C 5.501302083333334 0.07161458333333204  5.9765625 0.05533854166666574  6.171875 0.048828125000000555  C 6.536458333333333 0.048828125000000555  6.81640625 0.04231770833333204  7.01171875 0.029296875  L 7.001953125 0.16601562500000056  L 7.021484375 0.791015625  L 7.021484375 0.87890625  C 6.630859375 0.9375  6.227213541666667 0.966796875  5.810546875 0.966796875  C 5.419921875 0.966796875  5.162760416666668 1.048177083333333  5.0390625 1.2109374999999996  C 4.954427083333333 1.3020833333333321  4.912109375 1.7317708333333326  4.912109375 2.4999999999999996  C 4.912109375 2.584635416666665  4.913736979166667 2.6904296874999996  4.9169921875 2.8173828125000004  C 4.920247395833334 2.9443359375  4.921875000000001 3.0273437499999996  4.921875 3.0664062500000004  L 4.931640625 5.302734375  L 5.068359375 8.037109375000002  C 5.107421875 8.844401041666668  5.2734375 9.501953125000002  5.56640625 10.009765624999998  C 5.794270833333334 10.393880208333332  6.106770833333334 10.693359375  6.50390625 10.908203125000002  C 7.076822916666667 11.214192708333332  7.652994791666667 11.3671875  8.232421875 11.3671875  C 8.909505208333334 11.3671875  9.53125 11.276041666666668  10.09765625 11.093749999999998  C 10.462239583333334 10.976562499999998  10.784505208333334 10.810546875  11.064453125 10.595703124999998  C 11.376953125 10.361328124999998  11.588541666666668 10.152994791666666  11.69921875 9.970703125000002  C 11.93359375 9.606119791666664  12.106119791666666 9.235026041666664  12.216796875 8.857421875000002  C 12.353515625 8.382161458333332  12.421875 7.636718749999999  12.421875 6.62109375  C 12.421875 6.106770833333332  12.410481770833334 5.690104166666667  12.3876953125 5.371093749999999  C 12.364908854166668 5.052083333333332  12.3291015625 4.653320312499999  12.2802734375 4.1748046875  C 12.2314453125 3.6962890625000004  12.1875 3.177083333333332  12.1484375 2.6171874999999996  L 12.109375 2.0410156250000004  C 12.076822916666666 1.604817708333333  11.998697916666668 1.318359375  11.875 1.1816406249999996  C 11.653645833333336 0.9537760416666646  11.402994791666666 0.8430989583333331  11.123046875 0.849609375  L 10.146484375 0.8691406250000006  L 10.009765625 0.8398437500000006  L 10.029296875 0  L 10.849609375 0  L 12.8515625 0.09765624999999944  C 13.346354166666668 0.1171875  13.984375 0.08463541666666574  14.765625 0  L 14.94140625 0.019531250000000555  C 14.98046875 0.2669270833333326  15 0.43294270833333315  15 0.5175781250000006  C 15 0.5631510416666652  14.986979166666664 0.6640625000000006  14.9609375 0.8203125  C 14.66796875 0.8984375000000006  14.39453125 0.9407552083333326  14.140625 0.9472656249999994  C 13.665364583333336 1.018880208333333  13.408203125 1.0742187500000004  13.369140625 1.11328125  C 13.271484375 1.2109374999999996  13.22265625 1.3444010416666656  13.22265625 1.5136718750000004  C 13.22265625 1.5592447916666652  13.2275390625 1.6471354166666652  13.2373046875 1.7773437500000004  C 13.2470703125 1.9075520833333326  13.251953125 2.0084635416666647  13.251953125 2.080078125  C 13.304036458333334 2.203776041666665  13.375651041666668 3.492838541666665  13.466796875 5.947265625  C 13.505859375 7.216796874999999  13.45703125 8.206380208333332  13.3203125 8.916015625000002  C 13.22265625 9.410807291666664  13.089192708333336 9.807942708333332  12.919921875 10.107421875  C 12.672526041666668 10.530598958333334  12.307942708333334 10.930989583333332  11.826171875 11.30859375  C 11.337890625 11.6796875  10.745442708333336 11.969401041666668  10.048828125 12.177734375  C 9.339192708333334 12.392578125  8.509114583333334 12.5  7.55859375 12.5  C 6.471354166666668 12.5  5.546875 12.350260416666668  4.78515625 12.05078125  C 4.010416666666667 11.744791666666668  3.427734375 11.34765625  3.037109375 10.859374999999998  C 2.639973958333334 10.364583333333332  2.369791666666667 9.729817708333332  2.2265625 8.955078124999998  C 2.1223958333333335 8.434244791666668  2.0703125 7.662760416666666  2.0703125 6.640625000000001  L 2.0703125 3.3886718750000004  C 2.0703125 2.1647135416666656  2.0149739583333335 1.4713541666666652  1.904296875 1.3085937500000004  Z M 14.912109375 14.912109375  C 14.970703125 14.853515625  15 14.778645833333332  15 14.6875  L 15 14.0625  C 15 13.971354166666668  14.970703125 13.896484375  14.912109375 13.837890625  C 14.853515625 13.779296875  14.778645833333336 13.75  14.6875 13.75  L 0.3125 13.75  C 0.22135416666666669 13.75  0.14648437500000003 13.779296875  0.087890625 13.837890625  C 0.029296875 13.896484375  0 13.971354166666668  0 14.0625  L 0 14.6875  C 0 14.778645833333332  0.029296875 14.853515625  0.087890625 14.912109375  C 0.14648437500000003 14.970703125  0.22135416666666669 15  0.3125 15  L 14.6875 15  C 14.778645833333336 15  14.853515625 14.970703125  14.912109375 14.912109375  Z " fill-rule="nonzero" fill="#000000" stroke="none" transform="matrix(1 0 0 1 818 677 )" />
  </g>
</svg>