<?xml version="1.0" encoding="utf-8"?>
<svg version="1.1" xmlns:xlink="http://www.w3.org/1999/xlink" width="23px" height="21px" xmlns="http://www.w3.org/2000/svg">
  <g transform="matrix(1 0 0 1 -2 -261 )">
    <path d="M 13.891225961538462 10.240234375  C 14.06630608974359 10.067057291666664  14.153846153846155 9.861979166666664  14.153846153846155 9.625  C 14.153846153846155 9.388020833333332  14.06630608974359 9.182942708333332  13.891225961538462 9.009765625  C 13.716145833333336 8.836588541666668  13.508814102564106 8.75  13.269230769230768 8.75  L 9.73076923076923 8.75  C 9.491185897435898 8.75  9.283854166666668 8.836588541666668  9.108774038461538 9.009765625  C 8.93369391025641 9.182942708333332  8.846153846153847 9.388020833333332  8.846153846153847 9.625  C 8.846153846153847 9.861979166666664  8.93369391025641 10.067057291666664  9.108774038461538 10.240234375  C 9.283854166666668 10.413411458333332  9.491185897435898 10.5  9.73076923076923 10.5  L 13.269230769230768 10.5  C 13.508814102564106 10.5  13.716145833333336 10.413411458333332  13.891225961538462 10.240234375  Z M 21.852764423076923 6.384765625000001  C 22.02784455128205 6.557942708333332  22.115384615384617 6.763020833333332  22 7.000000000000001  L 22 20.125  C 22.115384615384617 20.361979166666664  22.02784455128205 20.567057291666664  21.852764423076923 20.740234375  C 21.677684294871796 20.913411458333336  21.470352564102566 21  21.230769230769234 21  L 1.7692307692307694 21  C 1.5296474358974361 21  1.3223157051282053 20.913411458333336  1.147235576923077 20.740234375  C 0.9721554487179488 20.567057291666664  0.8846153846153847 20.361979166666664  1 20.125  L 1 7.000000000000001  C 0.8846153846153847 6.763020833333332  0.9721554487179488 6.557942708333332  1.147235576923077 6.384765625000001  C 1.3223157051282053 6.211588541666665  1.5296474358974361 6.124999999999999  1.7692307692307694 6.124999999999999  L 21.230769230769234 6.124999999999999  C 21.470352564102566 6.124999999999999  21.677684294871796 6.211588541666665  21.852764423076923 6.384765625000001  Z M 22.737379807692307 0.2597656249999992  C 22.91245993589744 0.4329427083333305  23.000000000000004 0.6380208333333305  23 0.8749999999999992  L 23 4.375000000000001  C 23.000000000000004 4.611979166666665  22.91245993589744 4.817057291666665  22.737379807692307 4.990234375000001  C 22.56229967948718 5.163411458333332  22.354967948717952 5.25  22.115384615384617 5.25  L 0.8846153846153847 5.25  C 0.6450320512820515 5.25  0.4377003205128208 5.163411458333332  0.2626201923076923 4.990234375000001  C 0.08754006410256424 4.817057291666665  0 4.611979166666665  0 4.375000000000001  L 0 0.8749999999999992  C 0 0.6380208333333305  0.08754006410256424 0.4329427083333305  0.2626201923076923 0.2597656249999992  C 0.4377003205128208 0.08658854166666563  0.6450320512820515 0  0.8846153846153847 0  L 22.115384615384617 0  C 22.354967948717952 0  22.56229967948718 0.08658854166666563  22.737379807692307 0.2597656249999992  Z " fill-rule="nonzero" fill="#000000" stroke="none" transform="matrix(1 0 0 1 2 261 )" />
  </g>
</svg>