<?xml version="1.0" encoding="utf-8"?>
<svg version="1.1" xmlns:xlink="http://www.w3.org/1999/xlink" width="37px" height="30px" xmlns="http://www.w3.org/2000/svg">
  <g transform="matrix(1 0 0 1 -1319 -16 )">
    <path d="M 15.05484693877551 27.43359375  C 15.039115646258503 27.51953125  15.05484693877551 27.625  15.10204081632653 27.75  C 15.10204081632653 27.8125  15.109906462585034 27.96875  15.12563775510204 28.21875  C 15.14136904761905 28.46875  15.1453018707483 28.67578125  15.137436224489797 28.83984375  C 15.129570578231295 29.00390625  15.105973639455783 29.1875  15.066645408163266 29.390625  C 15.02731717687075 29.593750000000004  14.948660714285715 29.74609375  14.830676020408164 29.84765625  C 14.712691326530614 29.94921875  14.551445578231295 30  14.346938775510203 30  L 6.795918367346939 30  C 4.92389455782313 30  3.3232355442176873 29.339843749999996  1.9939413265306123 28.01953125  C 0.6646471088435374 26.69921875  0 25.109375  0 23.25  L 0 6.749999999999999  C 0 4.890624999999995  0.6646471088435374 3.300781249999999  1.9939413265306123 1.9804687500000007  C 3.3232355442176873 0.6601562499999958  4.92389455782313 0  6.795918367346939 0  L 14.346938775510203 0  C 14.551445578231295 0  14.72842261904762 0.07421874999999578  14.877869897959183 0.22265625000000067  C 15.02731717687075 0.3710937499999989  15.10204081632653 0.5468749999999989  15.10204081632653 0.7500000000000007  C 15.10204081632653 0.8124999999999971  15.109906462585034 0.9687499999999982  15.12563775510204 1.2187500000000007  C 15.14136904761905 1.4687499999999964  15.1453018707483 1.6757812500000013  15.137436224489797 1.8398437499999987  C 15.129570578231295 2.003906249999999  15.105973639455783 2.187499999999999  15.066645408163266 2.390625000000001  C 15.02731717687075 2.5937499999999956  14.948660714285715 2.7460937499999973  14.830676020408164 2.8476562500000013  C 14.712691326530614 2.949218749999999  14.551445578231295 2.999999999999999  14.346938775510203 2.999999999999999  L 6.795918367346939 2.999999999999999  C 5.75765306122449 2.999999999999999  4.868835034013607 3.367187499999995  4.129464285714286 4.1015625  C 3.3900935374149666 4.835937499999998  3.020408163265306 5.718750000000002  3 6.749999999999999  L 3 23.25  C 3.020408163265306 24.28125  3.3900935374149666 25.164062499999996  4.129464285714286 25.8984375  C 4.868835034013607 26.6328125  5.75765306122449 27  6.795918367346939 27  L 13.591836734693878 27  L 13.85140306122449 27  L 14.158163265306122 27  C 14.158163265306122 27  14.248618197278914 27.007812499999996  14.42952806122449 27.0234375  C 14.61043792517007 27.0390625  14.700892857142856 27.0625  14.700892857142856 27.09375  C 14.700892857142856 27.124999999999996  14.763818027210885 27.16796875  14.889668367346939 27.22265625  C 15.015518707482995 27.27734375  15.070578231292519 27.347656249999996  15.05484693877551 27.43359375  Z M 36.55165816326531 13.9453125  C 36.850552721088434 14.2421875  37 14.59375  37 15  C 37 15.406249999999996  36.850552721088434 15.757812499999996  36.55165816326531 16.0546875  L 23.714923469387756 28.8046875  C 23.416028911564624 29.1015625  23.062074829931976 29.25  22.653061224489797 29.25  C 22.24404761904762 29.25  21.890093537414966 29.1015625  21.591198979591837 28.8046875  C 21.29230442176871 28.5078125  21.142857142857142 28.15625  21.142857142857142 27.75  L 21.142857142857142 21  L 10.571428571428571 21  C 10.162414965986395 21  9.808460884353742 20.8515625  9.509566326530614 20.5546875  C 9.210671768707483 20.257812499999996  9.061224489795919 19.906249999999996  9.061224489795919 19.5  L 9.061224489795919 10.5  C 9.061224489795919 10.093749999999996  9.210671768707483 9.742187499999996  9.509566326530614 9.4453125  C 9.808460884353742 9.1484375  10.162414965986395 9.000000000000002  10.571428571428571 9  L 21.142857142857142 9  L 21.142857142857142 2.2499999999999987  C 21.142857142857142 1.8437499999999951  21.29230442176871 1.4921874999999951  21.591198979591837 1.1953124999999987  C 21.890093537414966 0.8984374999999989  22.24404761904762 0.7500000000000007  22.653061224489797 0.7500000000000007  C 23.062074829931976 0.7500000000000007  23.416028911564624 0.8984374999999989  23.714923469387756 1.1953124999999987  L 36.55165816326531 13.9453125  Z " fill-rule="nonzero" fill="#000000" stroke="none" transform="matrix(1 0 0 1 1319 16 )" />
  </g>
</svg>