<?xml version="1.0" encoding="utf-8"?>
<svg version="1.1" xmlns:xlink="http://www.w3.org/1999/xlink" width="20px" height="20px" xmlns="http://www.w3.org/2000/svg">
  <g transform="matrix(1 0 0 1 -1016 -93 )">
    <path d="M 14.4140625 12.083333333333336  C 14.4140625 12.196180555555554  14.370659722222223 12.296006944444443  14.283854166666668 12.3828125  L 12.3828125 14.283854166666664  C 12.296006944444445 14.370659722222218  12.196180555555555 14.4140625  12.083333333333332 14.4140625  C 11.970486111111114 14.4140625  11.870659722222223 14.370659722222218  11.783854166666668 14.283854166666664  L 10 12.5  L 8.216145833333334 14.283854166666664  C 8.129340277777779 14.370659722222218  8.02951388888889 14.4140625  7.916666666666666 14.4140625  C 7.8038194444444455 14.4140625  7.703993055555557 14.370659722222218  7.6171875 14.283854166666664  L 5.716145833333334 12.3828125  C 5.629340277777778 12.296006944444443  5.585937500000001 12.196180555555554  5.5859375 12.083333333333336  C 5.585937500000001 11.97048611111111  5.629340277777778 11.870659722222223  5.716145833333334 11.783854166666664  L 7.5 10  L 5.716145833333334 8.216145833333332  C 5.629340277777778 8.129340277777777  5.585937500000001 8.02951388888889  5.5859375 7.916666666666668  C 5.585937500000001 7.803819444444445  5.629340277777778 7.703993055555554  5.716145833333334 7.6171875  L 7.6171875 5.716145833333332  C 7.703993055555557 5.629340277777777  7.8038194444444455 5.5859375  7.916666666666666 5.5859375  C 8.02951388888889 5.5859375  8.129340277777779 5.629340277777777  8.216145833333334 5.716145833333332  L 10 7.5  L 11.783854166666668 5.716145833333332  C 11.870659722222223 5.629340277777777  11.970486111111114 5.5859375  12.083333333333332 5.5859375  C 12.196180555555555 5.5859375  12.296006944444445 5.629340277777777  12.3828125 5.716145833333332  L 14.283854166666668 7.6171875  C 14.370659722222223 7.703993055555554  14.4140625 7.803819444444445  14.4140625 7.916666666666668  C 14.4140625 8.02951388888889  14.370659722222223 8.129340277777777  14.283854166666668 8.216145833333332  L 12.5 10  L 14.283854166666668 11.783854166666664  C 14.370659722222223 11.870659722222223  14.4140625 11.97048611111111  14.4140625 12.083333333333336  Z M 16.1328125 13.5546875  C 16.766493055555557 12.469618055555554  17.083333333333332 11.284722222222223  17.083333333333332 10  C 17.083333333333332 8.715277777777777  16.766493055555557 7.530381944444445  16.1328125 6.4453125  C 15.499131944444446 5.360243055555554  14.639756944444446 4.500868055555554  13.5546875 3.8671875  C 12.469618055555555 3.233506944444444  11.284722222222223 2.9166666666666674  10 2.9166666666666674  C 8.715277777777779 2.9166666666666674  7.5303819444444455 3.233506944444444  6.4453125 3.8671875  C 5.360243055555555 4.500868055555554  4.500868055555555 5.360243055555554  3.8671875 6.4453125  C 3.2335069444444446 7.530381944444445  2.916666666666667 8.715277777777777  2.916666666666667 10  C 2.916666666666667 11.284722222222223  3.2335069444444446 12.469618055555554  3.8671875 13.5546875  C 4.500868055555555 14.639756944444443  5.360243055555555 15.499131944444445  6.4453125 16.1328125  C 7.5303819444444455 16.766493055555557  8.715277777777779 17.083333333333332  10 17.083333333333332  C 11.284722222222223 17.083333333333332  12.469618055555555 16.766493055555557  13.5546875 16.1328125  C 14.639756944444446 15.499131944444445  15.499131944444446 14.639756944444443  16.1328125 13.5546875  Z M 18.658854166666668 4.98046875  C 19.552951388888886 6.512586805555554  20 8.185763888888886  20 10  C 20 11.81423611111111  19.552951388888886 13.487413194444443  18.658854166666668 15.01953125  C 17.764756944444446 16.551649305555557  16.551649305555557 17.764756944444443  15.01953125 18.658854166666668  C 13.487413194444446 19.55295138888889  11.81423611111111 20  10 20  C 8.18576388888889 20  6.512586805555555 19.55295138888889  4.98046875 18.658854166666668  C 3.4483506944444446 17.764756944444443  2.235243055555556 16.551649305555557  1.3411458333333335 15.01953125  C 0.44704861111111105 13.487413194444443  0 11.81423611111111  0 10  C 0 8.185763888888886  0.44704861111111105 6.512586805555554  1.3411458333333335 4.98046875  C 2.235243055555556 3.448350694444444  3.4483506944444446 2.2352430555555536  4.98046875 1.3411458333333326  C 6.512586805555555 0.4470486111111094  8.18576388888889 0  10 0  C 11.81423611111111 0  13.487413194444446 0.4470486111111094  15.01953125 1.3411458333333326  C 16.551649305555557 2.2352430555555536  17.764756944444446 3.448350694444444  18.658854166666668 4.98046875  Z " fill-rule="nonzero" fill="#000000" stroke="none" transform="matrix(1 0 0 1 1016 93 )" />
  </g>
</svg>