<?xml version="1.0" encoding="utf-8"?>
<svg version="1.1" xmlns:xlink="http://www.w3.org/1999/xlink" width="25px" height="25px" xmlns="http://www.w3.org/2000/svg">
  <g transform="matrix(1 0 0 1 -452 -626 )">
    <path d="M 16.544596354166664 2.9134114583333344  C 15.2587890625 2.3600260416666656  13.910590277777779 2.0833333333333344  12.5 2.0833333333333344  C 11.089409722222223 2.0833333333333344  9.7412109375 2.3600260416666656  8.455403645833332 2.9134114583333344  C 7.169596354166667 3.466796875  6.062825520833334 4.207356770833334  5.135091145833334 5.135091145833334  C 4.207356770833334 6.062825520833334  3.466796875 7.169596354166666  2.913411458333333 8.455403645833334  C 2.360026041666667 9.7412109375  2.083333333333333 11.089409722222221  2.083333333333333 12.5  C 2.083333333333333 13.910590277777779  2.360026041666667 15.2587890625  2.913411458333333 16.544596354166668  C 3.466796875 17.830403645833332  4.207356770833334 18.937174479166664  5.135091145833334 19.864908854166664  C 6.062825520833334 20.792643229166664  7.169596354166667 21.533203125  8.455403645833332 22.086588541666664  C 9.7412109375 22.639973958333336  11.089409722222223 22.916666666666664  12.5 22.916666666666664  C 13.910590277777779 22.916666666666664  15.2587890625 22.639973958333336  16.544596354166664 22.086588541666664  C 17.830403645833336 21.533203125  18.937174479166664 20.792643229166664  19.864908854166664 19.864908854166664  C 20.792643229166664 18.937174479166664  21.533203125 17.830403645833332  22.086588541666664 16.544596354166668  C 22.639973958333336 15.2587890625  22.916666666666664 13.910590277777779  22.916666666666664 12.5  C 22.916666666666664 11.089409722222221  22.639973958333336 9.7412109375  22.086588541666664 8.455403645833334  C 21.533203125 7.169596354166666  20.792643229166664 6.062825520833334  19.864908854166664 5.135091145833334  C 18.937174479166664 4.207356770833334  17.830403645833336 3.466796875  16.544596354166664 2.9134114583333344  Z M 23.323567708333336 6.2255859375  C 24.441189236111107 8.140733506944443  25 10.232204861111107  25 12.5  C 25 14.76779513888889  24.441189236111107 16.859266493055554  23.323567708333336 18.7744140625  C 22.205946180555557 20.689561631944446  20.689561631944446 22.205946180555554  18.7744140625 23.323567708333336  C 16.859266493055557 24.441189236111114  14.76779513888889 25  12.5 25  C 10.232204861111112 25  8.140733506944445 24.441189236111114  6.2255859375 23.323567708333336  C 4.310438368055556 22.205946180555554  2.7940538194444446 20.689561631944446  1.6764322916666667 18.7744140625  C 0.5588107638888888 16.859266493055554  0 14.76779513888889  0 12.5  C 0 10.232204861111107  0.5588107638888888 8.140733506944443  1.6764322916666667 6.2255859375  C 2.7940538194444446 4.310438368055555  4.310438368055556 2.794053819444442  6.2255859375 1.6764322916666656  C 8.140733506944445 0.5588107638888867  10.232204861111112 0  12.5 0  C 14.76779513888889 0  16.859266493055557 0.5588107638888867  18.7744140625 1.6764322916666656  C 20.689561631944446 2.794053819444442  22.205946180555557 4.310438368055555  23.323567708333336 6.2255859375  Z " fill-rule="nonzero" fill="#000000" stroke="none" transform="matrix(1 0 0 1 452 626 )" />
  </g>
</svg>