<?xml version="1.0" encoding="utf-8"?>
<svg version="1.1" xmlns:xlink="http://www.w3.org/1999/xlink" width="31px" height="25px" xmlns="http://www.w3.org/2000/svg">
  <g transform="matrix(1 0 0 1 -449 -626 )">
    <path d="M 28.779947916666664 18.595377604166668  C 28.882204861111113 18.492296006944443  28.933333333333334 18.370225694444443  29 18.229166666666668  L 29 2.6041666666666656  C 28.933333333333334 2.4631076388888866  28.882204861111113 2.3410373263888866  28.779947916666664 2.2379557291666656  C 28.677690972222226 2.134874131944442  28.556597222222226 2.0833333333333344  28.416666666666664 2  L 2.583333333333333 2  C 2.443402777777778 2.0833333333333344  2.322309027777778 2.134874131944442  2.220052083333333 2.2379557291666656  C 2.117795138888889 2.3410373263888866  2.0666666666666664 2.4631076388888866  2 2.6041666666666656  L 2 18.229166666666668  C 2.0666666666666664 18.370225694444443  2.117795138888889 18.492296006944443  2.220052083333333 18.595377604166668  C 2.322309027777778 18.69845920138889  2.443402777777778 18.75  2.583333333333333 18.75  L 28.416666666666664 18.75  C 28.556597222222226 18.75  28.677690972222226 18.69845920138889  28.779947916666664 18.595377604166668  Z M 30.24114583333333 0.7649739583333343  C 30.74704861111111 1.274956597222221  31.000000000000007 1.8880208333333344  31 2.6041666666666656  L 31 18.229166666666668  C 31.000000000000007 18.9453125  30.74704861111111 19.558376736111107  30.24114583333333 20.068359375  C 29.735243055555557 20.578342013888886  29.12708333333333 20.833333333333336  28.416666666666664 20.833333333333336  L 16.53333333333333 20.833333333333336  L 16.53333333333333 22.916666666666664  L 22.21666666666667 22.916666666666664  C 22.367361111111116 22.916666666666664  22.49114583333333 22.965494791666664  22.58802083333333 23.063151041666664  C 22.684895833333336 23.160807291666664  22.73333333333333 23.28559027777778  22.73333333333333 23.4375  L 22.73333333333333 24.479166666666664  C 22.73333333333333 24.631076388888886  22.684895833333336 24.755859375  22.58802083333333 24.853515625  C 22.49114583333333 24.951171875  22.367361111111116 25  22.21666666666667 25  L 8.783333333333333 25  C 8.632638888888891 25  8.508854166666666 24.951171875  8.411979166666667 24.853515625  C 8.315104166666668 24.755859375  8.266666666666666 24.631076388888886  8.266666666666666 24.479166666666664  L 8.266666666666666 23.4375  C 8.266666666666666 23.28559027777778  8.315104166666668 23.160807291666664  8.411979166666667 23.063151041666664  C 8.508854166666666 22.965494791666664  8.632638888888891 22.916666666666664  8.783333333333333 22.916666666666664  L 14.466666666666667 22.916666666666664  L 14.466666666666667 20.833333333333336  L 2.583333333333333 20.833333333333336  C 1.8729166666666668 20.833333333333336  1.2647569444444446 20.578342013888886  0.7588541666666666 20.068359375  C 0.2529513888888889 19.558376736111107  0 18.9453125  0 18.229166666666668  L 0 2.6041666666666656  C 0 1.8880208333333344  0.2529513888888889 1.274956597222221  0.7588541666666666 0.7649739583333343  C 1.2647569444444446 0.254991319444442  1.8729166666666668 0  2.583333333333333 0  L 28.416666666666664 0  C 29.12708333333333 0  29.735243055555557 0.254991319444442  30.24114583333333 0.7649739583333343  Z " fill-rule="nonzero" fill="#000000" stroke="none" transform="matrix(1 0 0 1 449 626 )" />
  </g>
</svg>