<?xml version="1.0" encoding="utf-8"?>
<svg version="1.1" xmlns:xlink="http://www.w3.org/1999/xlink" width="8px" height="8px" xmlns="http://www.w3.org/2000/svg">
  <defs>
    <mask fill="white" id="clip273">
      <path d="M 7.463541666666667 1.9921875  C 7.8211805555555545 2.6050347222222214  8 3.2743055555555545  8 4  C 8 4.725694444444445  7.8211805555555545 5.394965277777777  7.463541666666667 6.0078125  C 7.105902777777779 6.620659722222222  6.620659722222222 7.105902777777778  6.0078125 7.463541666666667  C 5.394965277777779 7.821180555555556  4.725694444444445 8  4 8  C 3.274305555555556 8  2.6050347222222223 7.821180555555556  1.9921875 7.463541666666667  C 1.379340277777778 7.105902777777778  0.8940972222222223 6.620659722222222  0.5364583333333334 6.0078125  C 0.17881944444444442 5.394965277777777  0 4.725694444444445  0 4  C 0 3.2743055555555545  0.17881944444444442 2.6050347222222214  0.5364583333333334 1.9921875  C 0.8940972222222223 1.3793402777777777  1.379340277777778 0.8940972222222214  1.9921875 0.536458333333333  C 2.6050347222222223 0.17881944444444375  3.274305555555556 0  4 0  C 4.725694444444445 0  5.394965277777779 0.17881944444444375  6.0078125 0.536458333333333  C 6.620659722222222 0.8940972222222214  7.105902777777779 1.3793402777777777  7.463541666666667 1.9921875  Z " fill-rule="evenodd" />
    </mask>
  </defs>
  <g transform="matrix(1 0 0 1 -461 -632 )">
    <path d="M 7.463541666666667 1.9921875  C 7.8211805555555545 2.6050347222222214  8 3.2743055555555545  8 4  C 8 4.725694444444445  7.8211805555555545 5.394965277777777  7.463541666666667 6.0078125  C 7.105902777777779 6.620659722222222  6.620659722222222 7.105902777777778  6.0078125 7.463541666666667  C 5.394965277777779 7.821180555555556  4.725694444444445 8  4 8  C 3.274305555555556 8  2.6050347222222223 7.821180555555556  1.9921875 7.463541666666667  C 1.379340277777778 7.105902777777778  0.8940972222222223 6.620659722222222  0.5364583333333334 6.0078125  C 0.17881944444444442 5.394965277777777  0 4.725694444444445  0 4  C 0 3.2743055555555545  0.17881944444444442 2.6050347222222214  0.5364583333333334 1.9921875  C 0.8940972222222223 1.3793402777777777  1.379340277777778 0.8940972222222214  1.9921875 0.536458333333333  C 2.6050347222222223 0.17881944444444375  3.274305555555556 0  4 0  C 4.725694444444445 0  5.394965277777779 0.17881944444444375  6.0078125 0.536458333333333  C 6.620659722222222 0.8940972222222214  7.105902777777779 1.3793402777777777  7.463541666666667 1.9921875  Z " fill-rule="nonzero" fill="#ffffff" stroke="none" transform="matrix(1 0 0 1 461 632 )" />
    <path d="M 7.463541666666667 1.9921875  C 7.8211805555555545 2.6050347222222214  8 3.2743055555555545  8 4  C 8 4.725694444444445  7.8211805555555545 5.394965277777777  7.463541666666667 6.0078125  C 7.105902777777779 6.620659722222222  6.620659722222222 7.105902777777778  6.0078125 7.463541666666667  C 5.394965277777779 7.821180555555556  4.725694444444445 8  4 8  C 3.274305555555556 8  2.6050347222222223 7.821180555555556  1.9921875 7.463541666666667  C 1.379340277777778 7.105902777777778  0.8940972222222223 6.620659722222222  0.5364583333333334 6.0078125  C 0.17881944444444442 5.394965277777777  0 4.725694444444445  0 4  C 0 3.2743055555555545  0.17881944444444442 2.6050347222222214  0.5364583333333334 1.9921875  C 0.8940972222222223 1.3793402777777777  1.379340277777778 0.8940972222222214  1.9921875 0.536458333333333  C 2.6050347222222223 0.17881944444444375  3.274305555555556 0  4 0  C 4.725694444444445 0  5.394965277777779 0.17881944444444375  6.0078125 0.536458333333333  C 6.620659722222222 0.8940972222222214  7.105902777777779 1.3793402777777777  7.463541666666667 1.9921875  Z " stroke-width="2" stroke="#000000" fill="none" transform="matrix(1 0 0 1 461 632 )" mask="url(#clip273)" />
  </g>
</svg>