<?xml version="1.0" encoding="utf-8"?>
<svg version="1.1" xmlns:xlink="http://www.w3.org/1999/xlink" width="20px" height="15px" xmlns="http://www.w3.org/2000/svg">
  <g transform="matrix(1 0 0 1 -529 -621 )">
    <path d="M 19.638709677419357 2.0707070707070714  C 19.87956989247312 2.306397306397306  20.000000000000004 2.5925925925925926  20 2.929292929292929  C 20.000000000000004 3.2659932659932647  19.87956989247312 3.552188552188551  19.638709677419357 3.787878787878787  L 10.296774193548387 12.929292929292929  L 8.541935483870969 14.646464646464647  C 8.301075268817206 14.882154882154882  8.008602150537635 15  7.6645161290322585 15  C 7.320430107526882 15  7.027956989247313 14.882154882154882  6.787096774193548 14.646464646464647  L 5.032258064516128 12.929292929292929  L 0.3612903225806452 8.35858585858586  C 0.12043010752688184 8.122895622895621  0 7.836700336700336  0 7.5  C 0 7.1632996632996635  0.12043010752688184 6.877104377104376  0.3612903225806452 6.641414141414142  L 2.1161290322580646 4.924242424242424  C 2.3569892473118284 4.688552188552188  2.6494623655913987 4.570707070707069  2.9935483870967743 4.570707070707071  C 3.3376344086021517 4.570707070707069  3.6301075268817207 4.688552188552188  3.870967741935484 4.924242424242424  L 7.6645161290322585 8.648989898989898  L 16.129032258064516 0.3535353535353536  C 16.36989247311828 0.11784511784511731  16.66236559139785 0  17.006451612903227 0  C 17.350537634408603 0  17.643010752688173 0.11784511784511731  17.883870967741935 0.3535353535353536  L 19.638709677419357 2.0707070707070714  Z " fill-rule="nonzero" fill="#000000" stroke="none" transform="matrix(1 0 0 1 529 621 )" />
  </g>
</svg>