<?xml version="1.0" encoding="utf-8"?>
<svg version="1.1" xmlns:xlink="http://www.w3.org/1999/xlink" width="25px" height="25px" xmlns="http://www.w3.org/2000/svg">
  <g transform="matrix(1 0 0 1 -868 -626 )">
    <path d="M 21.629901960784316 19.408700980392158  C 21.915849673202615 19.122753267973856  22.058823529411764 18.78063725490196  22.058823529411764 18.38235294117647  C 22.058823529411764 17.973856209150323  21.915849673202615 17.626633986928102  21.629901960784316 17.340686274509803  L 18.443627450980394 14.154411764705882  C 18.157679738562095 13.868464052287582  17.81045751633987 13.725490196078432  17.401960784313726 13.725490196078432  C 16.973039215686274 13.725490196078432  16.605392156862745 13.88888888888889  16.29901960784314 14.215686274509803  C 16.329656862745097 14.246323529411764  16.42667483660131 14.34078839869281  16.590073529411764 14.49908088235294  C 16.753472222222225 14.657373366013072  16.86325571895425 14.767156862745098  16.919424019607842 14.82843137254902  C 16.97559232026144 14.88970588235294  17.05218545751634 14.98672385620915  17.14920343137255 15.119485294117647  C 17.24622140522876 15.252246732026142  17.31260212418301 15.382455065359476  17.348345588235293 15.510110294117647  C 17.384089052287585 15.637765522875815  17.401960784313726 15.778186274509803  17.401960784313726 15.931372549019606  C 17.401960784313726 16.33986928104575  17.258986928104576 16.687091503267972  16.973039215686274 16.973039215686274  C 16.687091503267975 17.258986928104576  16.33986928104575 17.401960784313726  15.931372549019606 17.401960784313726  C 15.778186274509803 17.401960784313726  15.637765522875819 17.38408905228758  15.510110294117647 17.348345588235293  C 15.38245506535948 17.312602124183005  15.252246732026146 17.246221405228756  15.119485294117647 17.149203431372552  C 14.986723856209153 17.052185457516337  14.889705882352944 16.975592320261434  14.82843137254902 16.919424019607842  C 14.7671568627451 16.863255718954246  14.657373366013074 16.75347222222222  14.49908088235294 16.590073529411764  C 14.34078839869281 16.426674836601308  14.246323529411764 16.329656862745097  14.215686274509803 16.29901960784314  C 13.878676470588236 16.615604575163395  13.710171568627452 16.98835784313725  13.710171568627452 17.417279411764707  C 13.710171568627452 17.825776143790847  13.853145424836603 18.172998366013072  14.139093137254902 18.45894607843137  L 17.29473039215686 21.629901960784316  C 17.57046568627451 21.90563725490196  17.91768790849673 22.043504901960784  18.33639705882353 22.043504901960784  C 18.744893790849673 22.043504901960784  19.092116013071898 21.91074346405229  19.378063725490197 21.645220588235293  L 21.629901960784316 19.408700980392158  Z M 10.784313725490197 8.700980392156863  C 11.121323529411764 8.3843954248366  11.289828431372548 8.011642156862745  11.289828431372548 7.582720588235295  C 11.289828431372548 7.174223856209149  11.146854575163399 6.827001633986926  10.860906862745098 6.5410539215686265  L 7.705269607843138 3.3700980392156854  C 7.4193218954248366 3.0841503267973858  7.072099673202614 2.941176470588236  6.66360294117647 2.941176470588236  C 6.265318627450981 2.941176470588236  5.918096405228758 3.079044117647059  5.621936274509804 3.354779411764705  L 3.3700980392156863 5.591299019607843  C 3.0841503267973858 5.877246732026142  2.941176470588235 6.2193627450980395  2.941176470588235 6.617647058823528  C 2.941176470588235 7.0261437908496704  3.0841503267973858 7.3733660130718945  3.3700980392156863 7.659313725490197  L 6.556372549019608 10.845588235294118  C 6.832107843137256 11.121323529411764  7.179330065359478 11.259191176470587  7.598039215686274 11.259191176470587  C 8.026960784313726 11.259191176470587  8.394607843137255 11.100898692810457  8.700980392156863 10.784313725490197  C 8.670343137254902 10.753676470588234  8.573325163398694 10.65921160130719  8.409926470588236 10.50091911764706  C 8.246527777777779 10.342626633986928  8.136744281045754 10.232843137254902  8.080575980392158 10.17156862745098  C 8.024407679738562 10.11029411764706  7.947814542483661 10.01327614379085  7.850796568627451 9.880514705882353  C 7.753778594771243 9.747753267973854  7.687397875816994 9.61754493464052  7.6516544117647065 9.489889705882353  C 7.615910947712419 9.362234477124181  7.598039215686274 9.221813725490197  7.598039215686274 9.068627450980394  C 7.598039215686274 8.660130718954248  7.741013071895425 8.312908496732025  8.026960784313726 8.026960784313724  C 8.312908496732026 7.741013071895423  8.66013071895425 7.598039215686275  9.068627450980392 7.598039215686275  C 9.221813725490197 7.598039215686275  9.362234477124185 7.615910947712415  9.489889705882353 7.651654411764705  C 9.617544934640524 7.687397875816993  9.747753267973856 7.753778594771241  9.880514705882353 7.850796568627453  C 10.01327614379085 7.947814542483658  10.11029411764706 8.02440767973856  10.17156862745098 8.080575980392158  C 10.232843137254902 8.136744281045749  10.342626633986928 8.246527777777777  10.50091911764706 8.409926470588236  C 10.65921160130719 8.57332516339869  10.753676470588236 8.670343137254902  10.784313725490197 8.700980392156863  Z M 23.713235294117645 15.257352941176471  C 24.57107843137255 16.11519607843137  25 17.15686274509804  25 18.38235294117647  C 25 19.607843137254903  24.565972222222225 20.644403594771244  23.697916666666664 21.49203431372549  L 21.44607843137255 23.728553921568626  C 20.598447712418302 24.576184640522875  19.56188725490196 25  18.33639705882353 25  C 17.100694444444446 25  16.05902777777778 24.565972222222225  15.211397058823529 23.697916666666664  L 12.05575980392157 20.526960784313726  C 11.208129084967322 19.67933006535948  10.784313725490197 18.64276960784314  10.784313725490197 17.417279411764707  C 10.784313725490197 16.161151960784316  11.233660130718954 15.093954248366012  12.132352941176471 14.215686274509803  L 10.784313725490197 12.867647058823529  C 9.906045751633988 13.766339869281047  8.843954248366014 14.215686274509803  7.598039215686274 14.215686274509803  C 6.372549019607843 14.215686274509803  5.330882352941177 13.786764705882353  4.473039215686274 12.92892156862745  L 1.2867647058823528 9.742647058823529  C 0.428921568627451 8.884803921568626  0 7.8431372549019605  0 6.617647058823528  C 0 5.392156862745098  0.43402777777777773 4.355596405228757  1.3020833333333335 3.5079656862745083  L 3.553921568627451 1.2714460784313735  C 4.4015522875816995 0.4238153594771227  5.4381127450980395 0  6.66360294117647 0  C 7.899305555555556 0  8.940972222222223 0.43402777777777624  9.788602941176471 1.3020833333333344  L 12.944240196078432 4.473039215686275  C 13.79187091503268 5.32066993464052  14.215686274509803 6.357230392156862  14.215686274509803 7.582720588235295  C 14.215686274509803 8.838848039215685  13.766339869281047 9.906045751633986  12.867647058823529 10.784313725490197  L 14.215686274509803 12.132352941176471  C 15.093954248366014 11.233660130718953  16.15604575163399 10.784313725490193  17.401960784313726 10.784313725490197  C 18.627450980392158 10.784313725490193  19.669117647058822 11.213235294117647  20.526960784313726 12.071078431372548  L 23.713235294117645 15.257352941176471  Z " fill-rule="nonzero" fill="#000000" stroke="none" transform="matrix(1 0 0 1 868 626 )" />
  </g>
</svg>