<?xml version="1.0" encoding="utf-8"?>
<svg version="1.1" xmlns:xlink="http://www.w3.org/1999/xlink" width="19px" height="25px" xmlns="http://www.w3.org/2000/svg">
  <g transform="matrix(1 0 0 1 -871 -372 )">
    <path d="M 0 15.625  C 0 10.418750000000001  5.668333333333335 3.9328125  8.249166666666666 1.2500000000000002  C 9.009166666666667 0.4609375  9.5 0  9.5 0  C 9.672583333333334 0.5671875  9.8705 1.1062499999999997  10.087416666666668 1.621875  C 11.373083333333334 4.6625  13.369666666666667 6.85625  15.149333333333338 8.809375000000001  C 17.223499999999998 11.0875  19 13.039062500000002  18.999999999999996 15.624999860301614  C 18.999999999999996 20.8026693899653  14.746705123392536 24.999999860301614  9.5 24.999999860301614  C 4.253294931890485 24.999999860301614  0 20.802669475108072  0 15.625  Z M 8.903083333333333 2.84375  L 8.903083333333335 2.845312500000001  C 7.886282331915465 3.9311511768308325  6.919981123820567 5.0620038791044175  6.007166666666666 6.234375  C 4.857666666666667 7.718750000000001  3.733499999999999 9.371875000000001  2.9038333333333326 11.03125  C 2.064666666666666 12.7078125  1.5833333333333333 14.278125  1.5833333333333333 15.625  C 1.5833333333333333 15.625  5.541666666666667 17.96875  9.5 16.40625  C 13.458333333333334 14.84375  17.416666666666664 15.625  17.416666666666664 15.625  C 17.416666666666664 13.7484375  16.156333333333336 12.2546875  13.963416666666662 9.84375  L 13.915916666666666 9.79375  C 12.270833333333334 7.984375000000001  10.291666666666666 5.8125  8.903083333333333 2.84375  Z " fill-rule="nonzero" fill="#000000" stroke="none" transform="matrix(1 0 0 1 871 372 )" />
  </g>
</svg>