<?xml version="1.0" encoding="utf-8"?>
<svg version="1.1" xmlns:xlink="http://www.w3.org/1999/xlink" width="37px" height="25px" xmlns="http://www.w3.org/2000/svg">
  <g transform="matrix(1 0 0 1 -650 -372 )">
    <path d="M 37 12.5  C 34.09045454545455 5.183333333333334  26.917499999999997 0  18.5 0  C 10.09090909090909 0  2.909545454545454 5.183333333333334  0 12.5  C 2.909545454545454 19.81666666666667  10.09090909090909 25  18.5 25  C 26.90909090909091 25  34.09045454545455 19.81666666666667  37 12.5  Z M 26.90909090909091 12.5  C 26.90909090909091 17.099999999999998  23.141818181818184 20.833333333333336  18.5 20.833333333333336  C 13.85818181818182 20.833333333333336  10.09090909090909 17.099999999999998  10.09090909090909 12.5  C 10.09090909090909 7.9  13.85818181818182 4.166666666666666  18.5 4.166666666666666  C 23.141818181818184 4.166666666666666  26.90909090909091 7.9  26.90909090909091 12.5  Z M 23.545454545454547 12.5  C 23.545454545454547 9.741666666666667  21.28340909090909 7.5  18.5 7.5  C 15.716590909090911 7.5  13.454545454545455 9.741666666666667  13.454545454545455 12.5  C 13.454545454545455 15.258333333333333  15.716590909090911 17.5  18.5 17.5  C 21.28340909090909 17.5  23.545454545454547 15.258333333333333  23.545454545454547 12.5  Z " fill-rule="nonzero" fill="#000000" stroke="none" transform="matrix(1 0 0 1 650 372 )" />
  </g>
</svg>