<?xml version="1.0" encoding="utf-8"?>
<svg version="1.1" xmlns:xlink="http://www.w3.org/1999/xlink" width="28px" height="25px" xmlns="http://www.w3.org/2000/svg">
  <g transform="matrix(1 0 0 1 -448 -372 )">
    <path d="M 13.222222222222223 3.0864197530864126  C 13.222222222222223 1.3816550925925872  11.829027777777776 0  10.111111111111105 0  C 8.659097222222224 0  7.450138888888896 0.9910300925925872  7.106944444444449 2.3254243827160477  C 7.070486111111103 2.3244598765432065  7.036458333333329 2.3148148148148096  7 2.3148148148148096  C 5.282083333333328 2.3148148148148096  3.888888888888896 3.6964699074074128  3.888888888888896 5.401234567901238  C 3.888888888888896 5.6346450617283965  3.9200000000000004 5.859857253086428  3.969583333333328 6.078317901234572  C 2.554027777777776 6.655092592592587  1.555555555555552 8.032889660493826  1.555555555555552 9.645061728395063  C 1.555555555555552 10.25173611111111  1.7091666666666718 10.817901234567904  1.9609722222222241 11.328607253086428  C 0.7943055555555519 11.994598765432094  0 13.229648919753096  0 14.660493827160492  C 0 16.268325617283953  0.992638888888896 17.644675925925938  2.402361111111104 18.223861882716065  C 2.358611111111104 18.444251543209873  2.333333333333328 18.671392746913586  2.333333333333328 18.904320987654316  C 2.333333333333328 20.82175925925927  3.9000694444444477 22.37654320987654  5.833333333333329 22.37654320987654  C 6.033611111111104 22.37654320987654  6.227083333333328 22.35001929012346  6.418125 22.31819058641976  C 6.883819444444448 23.69357638888889  8.178819444444448 24.691358024691365  9.722222222222223 24.691358024691365  C 11.655486111111104 24.691358024691365  13.222222222222223 23.13657407407408  13.222222222222223 21.219135802469143  L 13.222222222222223 9.907889660493826  C 12.691875000000001 10.340952932098762  12.056527777777776 10.65297067901235  11.3575 10.794753086419746  C 11.115902777777777 10.843942901234572  10.888888888888895 10.658757716049381  10.888888888888895 10.414255401234572  L 10.888888888888895 9.633969907407412  C 10.888888888888895 9.461805555555555  11.003124999999999 9.307002314814826  11.170833333333327 9.264564043209873  C 12.347222222222223 8.967496141975317  13.222222222222223 7.916666666666666  13.222222222222223 6.65846836419754  L 13.222222222222223 3.0864197530864126  Z M 25.597638888888895 18.223861882716065  C 27.00736111111112 17.644675925925938  28 16.268325617283953  28 14.660493827160492  C 28 13.229648919753096  27.205694444444447 11.994598765432094  26.039027777777775 11.328607253086428  C 26.29034722222221 10.817901234567904  26.444444444444446 10.25173611111111  26.444444444444446 9.645061728395063  C 26.444444444444446 8.032889660493826  25.445972222222224 6.655092592592587  24.03041666666667 6.078317901234572  C 24.08 5.859857253086428  24.111111111111104 5.6346450617283965  24.111111111111104 5.401234567901238  C 24.111111111111104 3.6964699074074128  22.71791666666667 2.3148148148148096  21 2.3148148148148096  C 20.96354166666667 2.3148148148148096  20.929513888888895 2.3244598765432065  20.893055555555552 2.3254243827160477  C 20.549861111111102 0.9910300925925872  19.340902777777774 0  17.888888888888896 0  C 16.170972222222222 0  14.777777777777775 1.3816550925925872  14.777777777777775 3.0864197530864126  L 14.777777777777775 6.65846836419754  C 14.777777777777775 7.916666666666666  15.652291666666672 8.967496141975317  16.82916666666667 9.264564043209873  C 16.997361111111104 9.307002314814826  17.111111111111104 9.461805555555555  17.111111111111104 9.633969907407412  L 17.111111111111104 10.414255401234572  C 17.111111111111104 10.658757716049381  16.883611111111104 10.843942901234572  16.6425 10.794753086419746  C 15.943472222222224 10.65297067901235  15.308611111111105 10.340952932098762  14.777777777777775 9.907889660493826  L 14.777777777777775 21.219135802469143  C 14.777777777777775 23.13657407407408  16.344513888888898 24.691358024691365  18.277777777777775 24.691358024691365  C 19.821180555555554 24.691358024691365  21.11618055555555 23.69357638888889  21.581875 22.31819058641976  C 21.772916666666674 22.350501543209887  21.966388888888897 22.37654320987654  22.166666666666657 22.37654320987654  C 24.099930555555552 22.37654320987654  25.666666666666657 20.82175925925927  25.666666666666657 18.904320987654316  C 25.666666666666657 18.671392746913586  25.641388888888898 18.444251543209873  25.597638888888895 18.223861882716065  Z " fill-rule="nonzero" fill="#000000" stroke="none" transform="matrix(1 0 0 1 448 372 )" />
  </g>
</svg>