<?xml version="1.0" encoding="utf-8"?>
<svg version="1.1" xmlns:xlink="http://www.w3.org/1999/xlink" width="24px" height="25px" xmlns="http://www.w3.org/2000/svg">
  <g transform="matrix(1 0 0 1 -450 -480 )">
    <path d="M 20.487000000000002 20.988  C 25.063000000000002 16.412  25.160000000000004 9.032  20.788 4.332  C 20.687 4.227  20.591 4.119  20.487000000000002 4.015  C 20.384 3.9119999999999995  20.276000000000003 3.8129999999999997  20.167 3.7130000000000005  C 17.95328655041572 1.640847949180054  15.032205760361764 0.4916582126252178  12 0.5  C 8.815633710114907 0.4914294634420035  5.760088269469344 1.7567118907845094  3.5139999999999993 4.013999999999999  C -1.062 8.59  -1.16 15.97  3.213 20.668  C 3.3120000000000003 20.776  3.41 20.881999999999998  3.513 20.988  C 3.617 21.091  3.723 21.188  3.83 21.288  C 6.0455562735740855 23.359022236912164  8.967218435838664 24.50766102090161  12 24.5  C 15.206 24.5  18.22 23.253  20.487000000000002 20.988  Z M 3.8309999999999995 20.05  C -0.201 15.690999999999999  -0.101 8.867  4.132999999999999 4.633  C 6.2150905471828235 2.539968449048352  9.047742221141581 1.3665081966736747  12 1.374  C 14.825 1.374  17.490000000000002 2.422  19.55 4.332000000000001  L 18.549 5.3340000000000005  C 16.763121558167647 3.6936065515994176  14.424915840493977 2.7860299850508645  12 2.792  C 9.423647264653905 2.784962472742947  6.951587646664943 3.809075736189503  5.135 5.635999999999999  C 3.3086894577649 7.452508621724492  2.2849652820218456 9.9241381476831  2.292 12.5  C 2.292 14.948  3.1919999999999993 17.253  4.834 19.049  L 3.8309999999999995 20.05  Z M 12 3.6670000000000003  C 14.213000000000001 3.6670000000000003  16.301000000000002 4.476  17.930999999999997 5.9510000000000005  L 17.930999999999997 5.953  L 16.915999999999997 6.967  C 15.5654819634415 5.755388598894191  13.814357885983078 5.086427854901735  12 5.089  C 10.033715889733566 5.083480321689506  8.147044933594106 5.8653017849036235  6.761000000000001 7.26  C 5.366160557574134 8.646440702723325  4.584035566664875 10.533335248010857  4.589000000000001 12.500000000000004  C 4.586325717328778 14.313296406035835  5.25495017756446 16.063404010264875  6.466000000000001 17.413  L 5.452 18.429000000000002  C 3.975990141133046 16.80776937879643  3.1607694823714794 14.692476912364336  3.167 12.5  C 3.1604859464908093 10.156136315676306  4.092473547502414 7.907194055893664  5.754999999999999 6.254999999999999  C 7.407257452175349 4.592568092534769  9.65615837890801 3.660597620415615  12 3.6670000000000003  Z M 16.916000000000004 8.204  C 17.96241571059189 9.390242266878387  18.53894922212103 10.91818055529861  18.537 12.5  C 18.537 14.245000000000003  17.855999999999998 15.887  16.621 17.122  C 15.386 18.357  13.745999999999999 19.038  12.000000000000004 19.038  C 10.418331646508362 19.039118534667853  8.890677590569796 18.46269227194057  7.704000000000001 17.417  L 7.702999999999999 17.413  C 7.592999999999999 17.319  7.482999999999999 17.225  7.378999999999999 17.122  C 7.277412877604281 17.016921915224717  7.179681597157856 16.908183357458388  7.0859999999999985 16.796  C 6.03897868210345 15.610194119145241  5.462663135721892 14.081890670222297  5.466 12.5  C 5.466 10.754  6.145 9.113  7.380000000000001 7.879  C 8.602377267117332 6.64929219569454  10.26611339266514 5.9600300865390174  12 5.965  C 13.599 5.965  15.105 6.5409999999999995  16.295 7.585  C 16.406000000000002 7.681  16.519000000000002 7.775  16.621000000000002 7.88  C 16.725 7.983999999999999  16.821 8.094000000000001  16.916000000000004 8.204  Z M 6.07 19.049  L 7.084 18.034  L 7.085000000000001 18.034  C 8.435263682636357 19.245497003844655  10.185906870310946 19.914766291665725  11.999999999999998 19.913  C 13.966872949014396 19.918509440135875  15.853895563413143 19.135461689858555  17.239000000000004 17.739000000000004  C 18.634715887732266 16.35347587019989  19.41732613133217 14.466639668534038  19.412 12.5  C 19.413420718334216 10.686218813849617  18.7454091358843 8.93571511484974  17.535999999999998 7.583999999999999  L 18.549 6.571999999999998  C 20.024188470372337 8.193339003347058  20.839300686207753 10.307993364604105  20.834 12.5  C 20.84107617868887 14.844465113150425  19.908613587036086 17.094044621633742  18.245 18.746000000000002  C 16.59318671858564 20.409094212068222  14.343996129394792 21.341184723649633  12 21.334  C 9.80739346966814 21.33931557554695  7.692107709473364 20.524234974864815  6.07 19.049  Z M 20.168000000000003 4.95  C 24.199000000000005 9.309000000000001  24.103 16.132  19.866999999999997 20.366999999999997  C 17.785440962902243 22.460704003983537  14.952355631167684 23.633983781635905  12.000000000000004 23.625000000000004  C 9.19905928361658 23.632714876600208  6.499858021576511 22.575697510443078  4.449 20.668  L 5.452999999999999 19.666999999999998  C 7.238561131577521 21.30790333448956  9.576974377828122 22.21556045343429  12.001999999999997 22.208999999999996  C 14.578752208072856 22.21606691302729  17.051059532145324 21.19113076673301  18.866999999999997 19.363  C 20.693252630581956 17.546862026657056  21.7169904960602 15.075559539573986  21.71 12.5  C 21.7160361531854 10.075184402982186  20.808032490397554 7.737155309810813  19.167 5.952  L 20.168000000000003 4.95  Z " fill-rule="nonzero" fill="#000000" stroke="none" transform="matrix(1 0 0 1 450 480 )" />
  </g>
</svg>