<?xml version="1.0" encoding="utf-8"?>
<svg version="1.1" xmlns:xlink="http://www.w3.org/1999/xlink" width="25px" height="30px" xmlns="http://www.w3.org/2000/svg">
  <g transform="matrix(1 0 0 1 -305 -366 )">
    <path d="M 5.289713541666666 12.137276785714286  C 7.524956597222222 12.617187500000002  9.928385416666668 12.857142857142858  12.5 12.857142857142858  C 15.071614583333334 12.857142857142858  17.47504340277778 12.617187500000002  19.710286458333336 12.137276785714286  C 21.945529513888893 11.65736607142857  23.708767361111114 10.948660714285714  25 10.011160714285714  L 25 12.857142857142858  C 25 13.627232142857142  24.441189236111107 14.341517857142858  23.323567708333336 15  C 22.205946180555557 15.658482142857139  20.686848958333336 16.180245535714285  18.766276041666664 16.56529017857143  C 16.845703125 16.95033482142857  14.756944444444445 17.142857142857142  12.5 17.142857142857142  C 10.243055555555557 17.142857142857142  8.154296875 16.95033482142857  6.233723958333334 16.56529017857143  C 4.313151041666666 16.180245535714285  2.7940538194444446 15.658482142857139  1.6764322916666667 15  C 0.5588107638888888 14.341517857142858  0 13.627232142857142  0 12.857142857142858  L 0 10.011160714285714  C 1.291232638888889 10.948660714285714  3.0544704861111116 11.65736607142857  5.289713541666666 12.137276785714286  Z M 5.289713541666666 24.994419642857142  C 7.524956597222222 25.47433035714286  9.928385416666668 25.714285714285715  12.5 25.714285714285715  C 15.071614583333334 25.714285714285715  17.47504340277778 25.47433035714286  19.710286458333336 24.994419642857142  C 21.945529513888893 24.514508928571427  23.708767361111114 23.80580357142857  25 22.86830357142857  L 25 25.714285714285715  C 25 26.484375  24.441189236111107 27.198660714285715  23.323567708333336 27.857142857142858  C 22.205946180555557 28.515624999999996  20.686848958333336 29.037388392857142  18.766276041666664 29.42243303571429  C 16.845703125 29.80747767857143  14.756944444444445 30  12.5 30  C 10.243055555555557 30  8.154296875 29.80747767857143  6.233723958333334 29.42243303571429  C 4.313151041666666 29.037388392857142  2.7940538194444446 28.515624999999996  1.6764322916666667 27.857142857142858  C 0.5588107638888888 27.198660714285715  0 26.484375  0 25.714285714285715  L 0 22.86830357142857  C 1.291232638888889 23.80580357142857  3.0544704861111116 24.514508928571427  5.289713541666666 24.994419642857142  Z M 5.289713541666666 18.565848214285715  C 7.524956597222222 19.045758928571427  9.928385416666668 19.285714285714285  12.5 19.285714285714285  C 15.071614583333334 19.285714285714285  17.47504340277778 19.045758928571427  19.710286458333336 18.565848214285715  C 21.945529513888893 18.085937499999996  23.708767361111114 17.377232142857142  25 16.439732142857142  L 25 19.285714285714285  C 25 20.05580357142857  24.441189236111107 20.77008928571428  23.323567708333336 21.42857142857143  C 22.205946180555557 22.087053571428573  20.686848958333336 22.608816964285715  18.766276041666664 22.993861607142858  C 16.845703125 23.37890625  14.756944444444445 23.57142857142857  12.5 23.57142857142857  C 10.243055555555557 23.57142857142857  8.154296875 23.37890625  6.233723958333334 22.993861607142858  C 4.313151041666666 22.608816964285715  2.7940538194444446 22.087053571428573  1.6764322916666667 21.42857142857143  C 0.5588107638888888 20.77008928571428  0 20.05580357142857  0 19.285714285714285  L 0 16.439732142857142  C 1.291232638888889 17.377232142857142  3.0544704861111116 18.085937499999996  5.289713541666666 18.565848214285715  Z M 6.233723958333334 0.5775669642857129  C 8.154296875 0.19252232142857095  10.243055555555557 0  12.5 0  C 14.756944444444445 0  16.845703125 0.19252232142857095  18.766276041666664 0.5775669642857129  C 20.686848958333336 0.9626116071428581  22.205946180555557 1.484374999999999  23.323567708333336 2.142857142857142  C 24.441189236111107 2.8013392857142847  25 3.515625  25 4.285714285714287  L 25 6.428571428571429  C 25 7.198660714285713  24.441189236111107 7.912946428571424  23.323567708333336 8.571428571428571  C 22.205946180555557 9.229910714285714  20.686848958333336 9.751674107142858  18.766276041666664 10.13671875  C 16.845703125 10.521763392857142  14.756944444444445 10.714285714285714  12.5 10.714285714285714  C 10.243055555555557 10.714285714285714  8.154296875 10.521763392857142  6.233723958333334 10.13671875  C 4.313151041666666 9.751674107142858  2.7940538194444446 9.229910714285714  1.6764322916666667 8.571428571428571  C 0.5588107638888888 7.912946428571424  0 7.198660714285713  0 6.428571428571429  L 0 4.285714285714287  C 0 3.515625  0.5588107638888888 2.8013392857142847  1.6764322916666667 2.142857142857142  C 2.7940538194444446 1.484374999999999  4.313151041666666 0.9626116071428581  6.233723958333334 0.5775669642857129  Z " fill-rule="nonzero" fill="#000000" stroke="none" transform="matrix(1 0 0 1 305 366 )" />
  </g>
</svg>